<svg xmlns="http://www.w3.org/2000/svg" width="16.005" height="13.17" viewBox="0 0 16.005 13.17"><defs><style>.a{fill:#6e829c;}</style></defs><g transform="translate(57 -285)"><g transform="translate(-56.995 283.501)"><path class="a" d="M3.659,11.934a.65.65,0,0,0,.924-.914,4.288,4.288,0,0,1,.6-6.524A.65.65,0,1,0,4.439,3.43a5.587,5.587,0,0,0-.78,8.5Z"/><path class="a" d="M16,13.438l-2.133-1.232v.581H11.58a6.032,6.032,0,0,0,2.344-5.333,5.878,5.878,0,0,0-5.3-5.38L8.64,1.5,6.481,2.685,8.587,3.961,8.6,3.384a4.549,4.549,0,0,1,4.029,4.184A4.756,4.756,0,0,1,8.31,12.725a.627.627,0,0,0-.212.062H.646a.651.651,0,1,0,0,1.3H13.867v.581Z"/></g><path class="a" d="M6.226,10.336a.655.655,0,0,1-.534-.276L4.61,8.5a.65.65,0,0,1,1.064-.748L6.394,8.8l4.243-2.61a.65.65,0,1,1,.715,1.085l-4.77,2.959A.647.647,0,0,1,6.226,10.336Z" transform="translate(-58.388 284.821) rotate(-9)"/></g></svg>