<svg xmlns="http://www.w3.org/2000/svg" width="12.39" height="14.4" viewBox="0 0 12.39 14.4"><defs><style>.a{fill:#6e829c;stroke:#6e829c;stroke-width:0.4px;}</style></defs><path class="a" d="M10.02,16a2.305,2.305,0,0,1-2.45-2H4.52a.437.437,0,0,1-.45-.3.545.545,0,0,1,.1-.55A5.6,5.6,0,0,0,5.52,9.5c0-1.45,0-5.65,4-6v-1a.5.5,0,1,1,1,0v1c4,.3,4,4.55,4,6a5.6,5.6,0,0,0,1.35,3.65.456.456,0,0,1,.1.55.437.437,0,0,1-.45.3H12.47A2.305,2.305,0,0,1,10.02,16Zm-1.4-2a1.358,1.358,0,0,0,1.4,1,1.278,1.278,0,0,0,1.4-1Zm-.6-1h6.5a6.776,6.776,0,0,1-1-3.5c0-3.45-1.1-5-3.5-5s-3.5,1.55-3.5,5a6.776,6.776,0,0,1-1,3.5Z" transform="translate(-3.84 -1.8)"/></svg>