<svg xmlns="http://www.w3.org/2000/svg" width="14.96" height="15.877" viewBox="0 0 14.96 15.877">
  <g id="Group_5403" data-name="Group 5403" transform="translate(-1.04 -0.062)">
    <path id="Path_13477" data-name="Path 13477" d="M2.461,15.938A1.423,1.423,0,0,1,1.04,14.517V1.483A1.423,1.423,0,0,1,2.461.062H14.579A1.423,1.423,0,0,1,16,1.483V14.517a1.423,1.423,0,0,1-1.421,1.421Zm.3-14.693a.562.562,0,0,0-.562.561V14.194a.562.562,0,0,0,.562.562H14.256a.562.562,0,0,0,.561-.562V1.806a.562.562,0,0,0-.561-.561Z" fill="#2680EB"/>
    <path id="Path_13478" data-name="Path 13478" d="M5.3,6.149a.24.24,0,0,1-.2-.1L4.122,4.825a.268.268,0,0,1,.017-.362l.224-.223a.277.277,0,0,1,.2-.08.282.282,0,0,1,.181.063l.527.526,1.27-1.2a.27.27,0,0,1,.378,0l.224.223a.294.294,0,0,1,.017.381L5.511,6.064A.283.283,0,0,1,5.3,6.149Z" fill="#2680EB"/>
    <rect id="Rectangle_1532" data-name="Rectangle 1532" width="4.684" height="1.02" rx="0.215" transform="translate(8.325 4.519)" fill="#2680EB"/>
    <path id="Path_13479" data-name="Path 13479" d="M5.284,9.446a.24.24,0,0,1-.2-.1L4.062,8.081a.266.266,0,0,1,.016-.361L4.3,7.5a.294.294,0,0,1,.4,0l.53.529L6.54,6.784a.3.3,0,0,1,.4,0l.224.223a.293.293,0,0,1,.018.381L5.49,9.342A.241.241,0,0,1,5.284,9.446Z" fill="#2680EB"/>
    <path id="Rectangle_1533" data-name="Rectangle 1533" d="M.214,0H4.469a.215.215,0,0,1,.215.215V.8a.215.215,0,0,1-.215.215H.215A.215.215,0,0,1,0,.8V.214A.214.214,0,0,1,.214,0Z" transform="translate(8.325 7.795)" fill="#2680EB"/>
    <path id="Path_13480" data-name="Path 13480" d="M5.284,12.723a.241.241,0,0,1-.2-.1L4.062,11.357A.266.266,0,0,1,4.078,11l.224-.224a.326.326,0,0,1,.206-.077.27.27,0,0,1,.191.077l.53.53L6.54,10.061a.293.293,0,0,1,.4,0l.224.223a.292.292,0,0,1,.018.38L5.49,12.618A.242.242,0,0,1,5.284,12.723Z" fill="#2680EB"/>
    <rect id="Rectangle_1534" data-name="Rectangle 1534" width="4.684" height="1.02" rx="0.215" transform="translate(8.325 11.072)" fill="#2680EB"/>
  </g>
</svg>
