<svg xmlns="http://www.w3.org/2000/svg" width="15.901" height="15.9" viewBox="0 0 15.901 15.9">
  <g id="Group_5399" data-name="Group 5399" transform="translate(-0.049 -0.05)">
    <path id="Path_13462" data-name="Path 13462" d="M7.692,15.95a1.9,1.9,0,0,1-1.9-1.9v-.311a.157.157,0,0,0-.1-.143.588.588,0,0,0-.09-.009.124.124,0,0,0-.1.032l-.221.221a1.9,1.9,0,0,1-2.687,0L2.16,13.4a1.9,1.9,0,0,1,0-2.687l.22-.22a.156.156,0,0,0,.029-.175.161.161,0,0,0-.148-.112H1.95a1.9,1.9,0,0,1-1.9-1.9V7.784a.666.666,0,0,1,1.332,0v.525a.569.569,0,0,0,.568.568h.311a1.506,1.506,0,0,1,1.061,2.561l-.22.219a.569.569,0,0,0,0,.805l.436.436a.584.584,0,0,0,.8,0l.218-.219a1.472,1.472,0,0,1,1.05-.435,1.52,1.52,0,0,1,.578.115,1.5,1.5,0,0,1,.934,1.38v.311a.569.569,0,0,0,.569.568h.617a.569.569,0,0,0,.568-.568v-.311A1.486,1.486,0,0,1,9.8,12.363a1.545,1.545,0,0,1,.59-.118,1.463,1.463,0,0,1,1.045.434l.22.219a.582.582,0,0,0,.8,0l.437-.436a.57.57,0,0,0,0-.805l-.222-.219a1.507,1.507,0,0,1,1.061-2.561h.311a.568.568,0,0,0,.569-.568V7.784a.666.666,0,1,1,1.331,0v.525a1.9,1.9,0,0,1-1.9,1.9h-.311a.158.158,0,0,0-.143.1.166.166,0,0,0,.023.184l.222.221a1.9,1.9,0,0,1,0,2.687l-.437.437a1.9,1.9,0,0,1-2.688,0l-.234-.235-.093-.029c-.138.044-.179.1-.179.163v.311a1.9,1.9,0,0,1-1.9,1.9Z" fill="#2680EB"/>
    <path id="Path_13463" data-name="Path 13463" d="M1.123,6.259A1.075,1.075,0,0,1,.072,4.965,3.088,3.088,0,0,1,1.445,2.994a2.554,2.554,0,0,1-.252-1.043,1.9,1.9,0,1,1,3.53.975,5.054,5.054,0,0,1,.784.754,5.947,5.947,0,0,1,.845-.686A2.57,2.57,0,0,1,6.1,1.951a1.9,1.9,0,1,1,3.53.975,5.009,5.009,0,0,1,.784.754,5.947,5.947,0,0,1,.845-.686,2.57,2.57,0,0,1-.252-1.043,1.9,1.9,0,1,1,3.8,0,1.884,1.884,0,0,1-.344,1.079A3.109,3.109,0,0,1,15.806,4.7a.764.764,0,0,1,.121.266,1.077,1.077,0,0,1-1.05,1.295ZM12.89,3.852a1.74,1.74,0,0,0-1.571,1l3.241.071a1.7,1.7,0,0,0-1.479-1.091Zm-4.906,0a1.743,1.743,0,0,0-1.573,1l3.132.071A1.594,1.594,0,0,0,8.016,3.852Zm-4.908,0a1.742,1.742,0,0,0-1.572,1l3.133.071A1.594,1.594,0,0,0,3.109,3.852Zm9.831-2.469a.568.568,0,1,0,.569.568A.569.569,0,0,0,12.907,1.383ZM8,1.383a.568.568,0,1,0,.569.568A.569.569,0,0,0,8,1.383Zm-4.907,0a.568.568,0,1,0,.568.568A.569.569,0,0,0,3.093,1.383Z" fill="#2680EB"/>
    <path id="Path_13464" data-name="Path 13464" d="M8,11.629A3.633,3.633,0,0,1,4.371,8V7.846a.666.666,0,1,1,1.332,0V8A2.3,2.3,0,0,0,10.3,8V7.846a.666.666,0,1,1,1.332,0V8A3.633,3.633,0,0,1,8,11.629Z" fill="#2680EB"/>
  </g>
</svg>
