<svg xmlns="http://www.w3.org/2000/svg" width="15.992" height="14.946" viewBox="0 0 15.992 14.946">
  <g id="Group_5405" data-name="Group 5405" transform="translate(-0.004 -1.002)">
    <path id="Path_13485" data-name="Path 13485" d="M7.967,11.852a1.872,1.872,0,0,1-1.335-.542,3.577,3.577,0,0,1-.784-2.347,2.119,2.119,0,1,1,4.238,0A3.587,3.587,0,0,1,9.3,11.31,1.821,1.821,0,0,1,7.967,11.852Zm0-3.9a.98.98,0,0,0-.978.98,2.689,2.689,0,0,0,.45,1.554.77.77,0,0,0,.528.2.613.613,0,0,0,.522-.19,2.785,2.785,0,0,0,.457-1.563A.981.981,0,0,0,7.967,7.953Z" fill="#2680EB"/>
    <path id="Path_13486" data-name="Path 13486" d="M5.249,15.948c-.253,0-.841-.1-.841-1.04,0-1.661,1.925-2.681,3.3-2.681h.4c1.4,0,3.385,1.007,3.419,2.648a1,1,0,0,1-.955,1.073ZM7.684,13.4c-.742,0-1.957.553-2.116,1.318l4.664.059c-.115-.824-1.379-1.377-2.151-1.377Z" fill="#2680EB"/>
    <path id="Path_13487" data-name="Path 13487" d="M3.435,11.232a1.3,1.3,0,0,1-1.087-.472,2.512,2.512,0,0,1-.512-1.691,1.6,1.6,0,0,1,3.2.028,2.494,2.494,0,0,1-.527,1.679A1.477,1.477,0,0,1,3.435,11.232Zm0-2.654a.547.547,0,0,0-.547.546,1.462,1.462,0,0,0,.265.935.393.393,0,0,0,.3.127.438.438,0,0,0,.306-.119,1.724,1.724,0,0,0,.22-.943A.528.528,0,0,0,3.435,8.578Z" fill="#2680EB"/>
    <path id="Path_13488" data-name="Path 13488" d="M1.747,14.272a.778.778,0,0,1-.768-.821c0-1.168,1.389-1.814,2.348-1.814H3.6a2.864,2.864,0,0,1,1.065.235.5.5,0,0,1,.28.294.541.541,0,0,1-.007.39.492.492,0,0,1-.27.273.545.545,0,0,1-.211.043.555.555,0,0,1-.2-.039,1.85,1.85,0,0,0-.681-.143H3.3a1.794,1.794,0,0,0-1.161.472l1.429.084a.525.525,0,0,1,.554.5.515.515,0,0,1-.527.527Z" fill="#2680EB"/>
    <path id="Path_13489" data-name="Path 13489" d="M12.566,11.232a1.479,1.479,0,0,1-1.067-.451A2.451,2.451,0,0,1,10.968,9.1a1.6,1.6,0,0,1,3.2-.026,2.566,2.566,0,0,1-.518,1.7A1.3,1.3,0,0,1,12.566,11.232Zm0-2.654a.529.529,0,0,0-.546.546,1.688,1.688,0,0,0,.236.961.468.468,0,0,0,.3.088.378.378,0,0,0,.269-.085,1.464,1.464,0,0,0,.292-.964A.547.547,0,0,0,12.566,8.578Z" fill="#2680EB"/>
    <path id="Path_13490" data-name="Path 13490" d="M12.4,14.272a.515.515,0,0,1-.527-.527.525.525,0,0,1,.554-.5H13.8a1.355,1.355,0,0,0-1.1-.556h-.268a1.88,1.88,0,0,0-.682.143.543.543,0,0,1-.414,0,.5.5,0,0,1-.269-.274.538.538,0,0,1,0-.406.5.5,0,0,1,.277-.277,2.828,2.828,0,0,1,1.061-.235h.267c.96,0,2.349.646,2.349,1.814a.778.778,0,0,1-.767.821Z" fill="#2680EB"/>
    <path id="Path_13491" data-name="Path 13491" d="M15.446,8.5a.5.5,0,0,1-.5-.5A6.946,6.946,0,1,0,1.054,8a.5.5,0,0,1-1,0A7.946,7.946,0,1,1,15.946,8,.5.5,0,0,1,15.446,8.5Z" transform="translate(0 1)" fill="#2680EB" stroke="#2680EB" stroke-width="0.1"/>
  </g>
</svg>
