<svg xmlns="http://www.w3.org/2000/svg" width="13.532" height="9.344" viewBox="0 0 13.532 9.344"><defs><style>.a{fill:#095dd9;}</style></defs><g transform="translate(-8 -973.362)"><path class="a" d="M9.45,973.362A1.458,1.458,0,0,0,8,974.812v6.444a1.458,1.458,0,0,0,1.45,1.45H20.082a1.458,1.458,0,0,0,1.45-1.45v-6.444a1.458,1.458,0,0,0-1.45-1.45Zm.106.967H19.981l-4.918,4.39a.4.4,0,0,1-.584,0Zm-.589.77,3.313,2.956-3.313,3.182Zm11.6,0v6.132l-3.3-3.182Zm-4.027,3.6,3.156,3.041H9.837L13,978.7l.831.74a1.417,1.417,0,0,0,1.873,0l.831-.745Z" transform="translate(0 0)"/></g></svg>