<svg xmlns="http://www.w3.org/2000/svg" width="20" height="18.3" viewBox="0 0 20 18.3"><defs><style>.a{fill:#0667fb;}</style></defs><g transform="translate(295 -387.7)"><path class="a" d="M-287.4,391.2h11.7a.684.684,0,0,0,.7-.7v-.1h0c0-.4-.3-.6-.7-.6h-11.7a.684.684,0,0,0-.7.7A.684.684,0,0,0-287.4,391.2Z"/><path class="a" d="M-293.6,393.3h2.8a1.367,1.367,0,0,0,1.4-1.4v-2.8a1.284,1.284,0,0,0-.4-1,1.284,1.284,0,0,0-1-.4h-2.8a1.284,1.284,0,0,0-1,.4,1.284,1.284,0,0,0-.4,1v2.8a1.284,1.284,0,0,0,.4,1A1.284,1.284,0,0,0-293.6,393.3Zm0-1.4v-2.8h2.8v2.8Z"/><path class="a" d="M-275,396.8c0-.2-.1-.3-.2-.5a.764.764,0,0,0-.5-.2h-11.7a.684.684,0,0,0-.7.7.684.684,0,0,0,.7.7h11.7c.4.1.7-.2.7-.7Z"/><path class="a" d="M-275.7,402.5h-11.7a.684.684,0,0,0-.7.7.684.684,0,0,0,.7.7h12v-.1a.215.215,0,0,0,.2-.2.764.764,0,0,0,.2-.5.764.764,0,0,0-.2-.5C-275.4,402.6-275.5,402.5-275.7,402.5Z"/><path class="a" d="M-293.6,399.7h2.8a1.284,1.284,0,0,0,1-.4,1.284,1.284,0,0,0,.4-1v-2.8a1.367,1.367,0,0,0-1.4-1.4h-2.8a1.367,1.367,0,0,0-1.4,1.4v2.8A1.43,1.43,0,0,0-293.6,399.7Zm0-1.5v-2.8h2.8v2.8Z"/><path class="a" d="M-290.8,400.4h-2.8a1.367,1.367,0,0,0-1.4,1.4v2.8a1.367,1.367,0,0,0,1.4,1.4h2.8a1.493,1.493,0,0,0,1.4-1.3v-2.9A1.367,1.367,0,0,0-290.8,400.4Zm0,1.4v2.8h-2.8v-2.8Z"/></g></svg>