<svg xmlns="http://www.w3.org/2000/svg" width="12.035" height="8.923" viewBox="0 0 12.035 8.923"><defs><style>.a{fill:#2e67ea;}</style></defs><path class="a" d="M11.7.38A1.133,1.133,0,0,0,10.875,0l-.016,0H1.177C1.15,0,1.129.015,1.1.018a1.138,1.138,0,0,0-.754.36,1.2,1.2,0,0,0-.337.872V3c0,.021.01.038.011.058a1.2,1.2,0,0,0,.324.81,1.135,1.135,0,0,0,.84.382h9.682a.83.83,0,0,0,.086-.021,1.135,1.135,0,0,0,.738-.355A1.191,1.191,0,0,0,12.034,3V1.259A1.2,1.2,0,0,0,11.7.38ZM10.532,1.5V2.75H1.512V1.5Z"/><path class="a" d="M7,4.673H1.25A1.251,1.251,0,0,0,0,5.923v1.75a1.251,1.251,0,0,0,1.25,1.25H7a1.251,1.251,0,0,0,1.25-1.25V5.923A1.251,1.251,0,0,0,7,4.673Zm-.25,1.5v1.25H1.5V6.173Z"/></svg>