<svg xmlns="http://www.w3.org/2000/svg" width="13.913" height="13.998" viewBox="0 0 13.913 13.998"><defs><style>.a{opacity:1;}.b{fill:#0667fb;}</style></defs><g class="a" transform="translate(297 -388.7)"><path class="b" d="M-296.067,395.263h4.581a.941.941,0,0,0,.933-.933v-4.5a.941.941,0,0,0-.933-.933h-4.581a.941.941,0,0,0-.933.933v4.581A.929.929,0,0,0-296.067,395.263Zm.424-1.357v-3.818h3.818v3.818Z" transform="translate(0 -0.03)"/><path class="b" d="M-291.471,397.3h-4.5a.941.941,0,0,0-.933.933v4.581a1.019,1.019,0,0,0,.933,1.018h4.5a.963.963,0,0,0,.933-1.018v-4.581A.885.885,0,0,0-291.471,397.3Zm-.339,1.357v3.818h-3.818v-3.818Z" transform="translate(-0.015 -1.304)"/><path class="b" d="M-282.886,397.4h-4.581a.963.963,0,0,0-.933,1.018V403a1.019,1.019,0,0,0,.933,1.018h4.581A1.032,1.032,0,0,0-281.868,403v-4.581A.98.98,0,0,0-282.886,397.4Zm-4.157,5.09v-3.733h3.818v3.818h-3.818Z" transform="translate(-1.304 -1.319)"/><path class="b" d="M-282.786,388.7h-4.581a.941.941,0,0,0-.933.933v4.5a.941.941,0,0,0,.933.933h4.581a1.019,1.019,0,0,0,1.018-.933v-4.581A1.091,1.091,0,0,0-282.786,388.7Zm-.424,1.357v3.818h-3.818v-3.818Z" transform="translate(-1.319)"/></g></svg>
