<svg xmlns="http://www.w3.org/2000/svg" width="11.722" height="12.287" viewBox="0 0 11.722 12.287"><defs><style>.a{fill:#2e67ea;}</style></defs><path class="a" d="M3.8,0H1.75A1.752,1.752,0,0,0,0,1.751v8.786a1.752,1.752,0,0,0,1.75,1.75H3.8a1.752,1.752,0,0,0,1.75-1.75V1.751A1.752,1.752,0,0,0,3.8,0ZM1.5,1.751a.25.25,0,0,1,.25-.25H3.8a.25.25,0,0,1,.25.25v8.786a.25.25,0,0,1-.25.25H1.75a.25.25,0,0,1-.25-.25Z"/><path class="a" d="M9.972,0H7.921a1.752,1.752,0,0,0-1.75,1.75V7.357a1.752,1.752,0,0,0,1.75,1.75H9.972a1.752,1.752,0,0,0,1.75-1.75V1.75A1.752,1.752,0,0,0,9.972,0Zm.249,1.75V7.358a.249.249,0,0,1-.249.249H7.921a.25.25,0,0,1-.25-.25V1.75a.25.25,0,0,1,.25-.25h2.05A.25.25,0,0,1,10.221,1.75Z"/></svg>
