<svg id="Group_6064" data-name="Group 6064" xmlns="http://www.w3.org/2000/svg" width="16" height="15.999" viewBox="0 0 16 15.999">
  <path id="Path_14220" data-name="Path 14220" d="M11.221,8.922a2.137,2.137,0,0,0,0,4.27h.009a1.981,1.981,0,0,0,.629-.105.524.524,0,0,0,.329-.652.512.512,0,0,0-.49-.371.559.559,0,0,0-.155.024,1.112,1.112,0,0,1-.358.05A1.082,1.082,0,0,1,10.1,11.091a1.087,1.087,0,1,1,2.173-.039,1.151,1.151,0,0,1-.041.305.525.525,0,0,0,.347.652l.116.02h.028a.516.516,0,0,0,.492-.379,2.188,2.188,0,0,0,.082-.595A2.107,2.107,0,0,0,11.221,8.922Z" fill="#6e829c"/>
  <path id="Path_14221" data-name="Path 14221" d="M14.73,9.563h0l.017-.016a1.354,1.354,0,0,0,.011-1.823V2a2,2,0,0,0-2-2H2A2,2,0,0,0,0,2v8.822a2,2,0,0,0,2,2H7.577a1.329,1.329,0,0,0,.162,1.591l.251.261a1.233,1.233,0,0,0,.9.387,1.268,1.268,0,0,0,.9-.382,1.287,1.287,0,0,0,.356.92,1.3,1.3,0,0,0,.921.4h.361a1.294,1.294,0,0,0,1.26-1.312,1.232,1.232,0,0,0,.9.38,1.275,1.275,0,0,0,.9-.384l.253-.265a1.341,1.341,0,0,0,0-1.842l-.007-.015a1.283,1.283,0,0,0,.909-.39A1.3,1.3,0,0,0,16,11.242v-.368A1.3,1.3,0,0,0,14.73,9.563ZM1.3,10.822V2A.7.7,0,0,1,2,1.3H12.753a.7.7,0,0,1,.7.7V7.071a1.268,1.268,0,0,0-.767.355,1.3,1.3,0,0,0-1.27-1.312H11.06A1.294,1.294,0,0,0,9.788,7.425a1.233,1.233,0,0,0-.9-.38,1.27,1.27,0,0,0-.9.385L7.738,7.7a1.356,1.356,0,0,0,0,1.842l.011.015H7.738a1.293,1.293,0,0,0-1.264,1.319v.367a1.209,1.209,0,0,0,.052.283H2A.7.7,0,0,1,1.3,10.822Zm13.43.591h-.182a1.026,1.026,0,0,0-.951.669,1.093,1.093,0,0,0,.219,1.155l.124.128a.182.182,0,0,1,0,.248l-.256.267a.145.145,0,0,1-.1.046.149.149,0,0,1-.108-.049l-.125-.129a1.015,1.015,0,0,0-.733-.315.992.992,0,0,0-.4.084,1.062,1.062,0,0,0-.637.982v.191a.165.165,0,0,1-.045.117.159.159,0,0,1-.11.049h-.354a.164.164,0,0,1-.16-.17V14.5a1.062,1.062,0,0,0-.638-.984.992.992,0,0,0-.4-.084,1.01,1.01,0,0,0-.73.313l-.129.133a.147.147,0,0,1-.107.047.158.158,0,0,1-.11-.05l-.257-.26a.179.179,0,0,1,0-.246l.128-.133a1.1,1.1,0,0,0,.219-1.155,1.033,1.033,0,0,0-.952-.672H7.746a.184.184,0,0,1-.16-.171v-.374a.183.183,0,0,1,.157-.167h.188a1.027,1.027,0,0,0,.95-.664,1.089,1.089,0,0,0-.219-1.153l-.125-.13a.182.182,0,0,1,0-.247l.252-.263A.146.146,0,0,1,8.9,8.2.152.152,0,0,1,9,8.244l.125.13a1.015,1.015,0,0,0,.732.315.982.982,0,0,0,.4-.085,1.06,1.06,0,0,0,.636-.981v-.2a.164.164,0,0,1,.164-.167h.352a.157.157,0,0,1,.115.05.164.164,0,0,1,.045.121v.185a1.066,1.066,0,0,0,.638.984,1.012,1.012,0,0,0,1.133-.23l.128-.133a.145.145,0,0,1,.213,0l.251.262a.179.179,0,0,1,0,.246l-.127.132a1.094,1.094,0,0,0-.218,1.156,1.029,1.029,0,0,0,.955.666h.175a.165.165,0,0,1,.161.172l0,.378A.183.183,0,0,1,14.73,11.413Z" fill="#6e829c"/>
  <path id="Path_14222" data-name="Path 14222" d="M6.806,8.937V3.088a.65.65,0,0,0-.65-.65H3.182a.65.65,0,0,0-.65.65V8.937a.65.65,0,0,0,.65.651H6.156A.65.65,0,0,0,6.806,8.937Zm-1.3-.649H3.832V3.738H5.506Z" fill="#6e829c"/>
  <path id="Path_14223" data-name="Path 14223" d="M8.669,6.1h2.975a.65.65,0,0,0,.65-.65V3.073a.65.65,0,0,0-.65-.65H8.669a.65.65,0,0,0-.649.65v2.38A.65.65,0,0,0,8.669,6.1Zm.65-2.38h1.674V4.8H9.319Z" fill="#6e829c"/>
</svg>
