<svg xmlns="http://www.w3.org/2000/svg" width="4.646" height="4.586" viewBox="0 0 4.646 4.586"><defs><style>.a{fill:#6e829c;stroke:#6e829c;stroke-width:0.5px;opacity:0.5;}</style></defs><path class="a" d="M5,1.088a.282.282,0,0,0-.409,0L3.043,2.635,1.5,1.088a.289.289,0,1,0-.409.409L2.635,3.043,1.088,4.59a.282.282,0,0,0,0,.409.265.265,0,0,0,.2.088A.265.265,0,0,0,1.5,5L3.043,3.452,4.59,5A.282.282,0,0,0,5,5,.282.282,0,0,0,5,4.59L3.452,3.043,5,1.5A.282.282,0,0,0,5,1.088Z" transform="translate(-0.72 -0.75)"/></svg>