<svg xmlns="http://www.w3.org/2000/svg" xmlns:xlink="http://www.w3.org/1999/xlink" width="48" height="48" viewBox="0 0 48 48">
  <defs>
    <clipPath id="clip-Feature_1">
      <rect width="48" height="48"/>
    </clipPath>
  </defs>
  <g id="Feature_1" data-name="Feature 1" clip-path="url(#clip-Feature_1)">
    <g id="networking" transform="translate(-28.981 0)">
      <g id="Group_2681" data-name="Group 2681" transform="translate(31.981 0)">
        <path id="Path_10542" data-name="Path 10542" d="M142.687,10.037a7.01,7.01,0,0,0,4,6.319V16.4a44.69,44.69,0,0,1-4.316,1.685c-3.642,1.214-3.684,3.838-3.684,3.949v6h2V22.063c0-.054.1-1.34,2.316-2.078a42.732,42.732,0,0,0,5.131-2.049,1,1,0,0,0,.553-.9V15.688a1,1,0,0,0-.666-.943,5.006,5.006,0,0,1-3.334-4.708v-3a5,5,0,1,1,10,0v3a5.006,5.006,0,0,1-3.334,4.708,1,1,0,0,0-.666.943v1.349a1,1,0,0,0,.553.895,42.738,42.738,0,0,0,5.131,2.054c2.216.738,2.316,2.024,2.316,2.051v6h2v-6c0-.111-.042-2.735-3.684-3.949a44.741,44.741,0,0,1-4.316-1.685v-.047a7.011,7.011,0,0,0,4-6.319v-3a7,7,0,0,0-14,0Z" transform="translate(-128.684 -0.034)" fill="#0667fb"/>
        <path id="Path_10543" data-name="Path 10543" d="M34.021,22.029c0-.054.1-1.34,2.316-2.078A42.733,42.733,0,0,0,41.467,17.9a1,1,0,0,0,.553-.9V15.654a1,1,0,0,0-.666-.943A5.006,5.006,0,0,1,38.02,10V7A5,5,0,0,1,45.4,2.6L46.36.85A7,7,0,0,0,36.021,7v3a7.01,7.01,0,0,0,4,6.319v.047A44.69,44.69,0,0,1,35.7,18.053c-3.642,1.214-3.684,3.838-3.684,3.949v6h2V22.029Z" transform="translate(-32.017 0)" fill="#0b1b31"/>
        <path id="Path_10544" data-name="Path 10544" d="M245.353,245.371h2v2h-2Z" transform="translate(-225.351 -222.369)" fill="#0b1b31"/>
        <path id="Path_10545" data-name="Path 10545" d="M288.019,245.371h2v2h-2Z" transform="translate(-264.017 -222.369)" fill="#0b1b31"/>
        <path id="Path_10546" data-name="Path 10546" d="M202.686,245.371h2v2h-2Z" transform="translate(-186.684 -222.369)" fill="#0b1b31"/>
        <path id="Path_10547" data-name="Path 10547" d="M337.714,18.066a44.74,44.74,0,0,1-4.316-1.685v-.047a7.01,7.01,0,0,0,4-6.319V7.18A7,7,0,0,0,327.059.863l.955,1.753a5.037,5.037,0,0,1,3.551-.473A5.1,5.1,0,0,1,335.4,7.18v2.836a5.006,5.006,0,0,1-3.334,4.708,1,1,0,0,0-.666.943v1.349a1,1,0,0,0,.553.895,42.732,42.732,0,0,0,5.131,2.054c2.216.738,2.316,2.024,2.316,2.051v6h2v-6c0-.111-.042-2.735-3.684-3.949Z" transform="translate(-299.398 -0.013)" fill="#0b1b31"/>
        <path id="Path_10548" data-name="Path 10548" d="M71.982,292.039a2.853,2.853,0,0,1-3,3h-12a1,1,0,0,0-1,1v7h-2v-15h-2v15h-2v-7a1,1,0,0,0-1-1h-12a2.852,2.852,0,0,1-3-3v-1h-2v1a4.821,4.821,0,0,0,4.635,5q.182.007.365,0h11v7a1,1,0,0,0,.293.707l4,4a1,1,0,0,0,1.414,0l4-4a1,1,0,0,0,.293-.707v-7h11a4.821,4.821,0,0,0,5-4.635q.007-.183,0-.365v-1h-2v1Zm-19,14.585L51.4,305.038h3.172Z" transform="translate(-31.981 -261.037)" fill="#0b1b31"/>
        <path id="Path_10549" data-name="Path 10549" d="M34.018,430.7a2,2,0,0,1,4,0h2a4,4,0,1,0-4,4h12v-2h-12A2,2,0,0,1,34.018,430.7Z" transform="translate(-32.015 -386.704)" fill="#0b1b31"/>
        <path id="Path_10550" data-name="Path 10550" d="M321.351,426.705a4,4,0,0,0-4,4h2a2,2,0,1,1,2,2h-12v2h12a4,4,0,1,0,0-8Z" transform="translate(-283.35 -386.704)" fill="#0b1b31"/>
      </g>
    </g>
  </g>
</svg>
