<svg xmlns="http://www.w3.org/2000/svg" xmlns:xlink="http://www.w3.org/1999/xlink" width="48" height="48" viewBox="0 0 48 48">
  <defs>
    <clipPath id="clip-Feature_3">
      <rect width="48" height="48"/>
    </clipPath>
  </defs>
  <g id="Feature_3" data-name="Feature 3" clip-path="url(#clip-Feature_3)">
    <g id="Group_5487" data-name="Group 5487" transform="translate(183 -1463.587)">
      <g id="Group_5476" data-name="Group 5476" transform="translate(-162.207 1470.663)">
        <g id="Group_5475" data-name="Group 5475">
          <path id="Path_18238" data-name="Path 18238" d="M221.575,27a3.448,3.448,0,0,0-.907,6.774V35.99h1.815V33.774A3.448,3.448,0,0,0,221.575,27Zm0,5.081a1.633,1.633,0,1,1,1.633-1.633A1.635,1.635,0,0,1,221.575,32.081Z" transform="translate(-218.127 -27)" fill="#0b1b31"/>
        </g>
      </g>
      <g id="Group_5478" data-name="Group 5478" transform="translate(-147.541 1476.731)">
        <g id="Group_5477" data-name="Group 5477" transform="translate(0)">
          <path id="Path_18239" data-name="Path 18239" d="M384.283,94.881a3.448,3.448,0,0,0-5.432,4.149l-1.567,1.567,1.283,1.283,1.566-1.566a3.448,3.448,0,0,0,4.149-5.432ZM383,98.474a1.633,1.633,0,1,1,.478-1.155A1.635,1.635,0,0,1,383,98.474Z" transform="translate(-377.284 -93.871)" fill="#0b1b31"/>
        </g>
      </g>
      <g id="Group_5480" data-name="Group 5480" transform="translate(-144.531 1492.516)">
        <g id="Group_5479" data-name="Group 5479" transform="translate(0)">
          <path id="Path_18240" data-name="Path 18240" d="M410.034,267.833a3.454,3.454,0,0,0-3.326,2.541h-2.216v1.815h2.216a3.448,3.448,0,1,0,3.326-4.355Zm0,5.081a1.633,1.633,0,1,1,1.633-1.633A1.635,1.635,0,0,1,410.034,272.914Z" transform="translate(-404.492 -267.833)" fill="#0b1b31"/>
        </g>
      </g>
      <g id="Group_5484" data-name="Group 5484" transform="translate(-182 1492.493)">
        <g id="Group_5483" data-name="Group 5483">
          <path id="Path_18242" data-name="Path 18242" d="M8.99,270.12H6.774a3.448,3.448,0,1,0,0,1.815H8.99ZM3.448,272.66a1.633,1.633,0,1,1,1.633-1.633A1.635,1.635,0,0,1,3.448,272.66Z" transform="translate(0 -267.579)" fill="#0b1b31"/>
        </g>
      </g>
      <g id="Group_5486" data-name="Group 5486" transform="translate(-178.062 1476.643)">
        <g id="Group_5485" data-name="Group 5485">
          <path id="Path_18243" data-name="Path 18243" d="M51.406,99.632l-1.566-1.566a3.447,3.447,0,1,0-1.283,1.283l1.566,1.566ZM48,97.51h0a1.633,1.633,0,1,1,.478-1.155A1.635,1.635,0,0,1,48,97.51Z" transform="translate(-43.399 -92.907)" fill="#0b1b31"/>
        </g>
      </g>
      <path id="Path_18244" data-name="Path 18244" d="M142.21,8.845a6.174,6.174,0,0,0,3.523,5.565v.041a39.36,39.36,0,0,1-3.8,1.484c-3.207,1.069-3.244,3.38-3.244,3.478V24.7h1.761v-5.26c0-.048.088-1.18,2.04-1.83a37.635,37.635,0,0,0,4.519-1.8.881.881,0,0,0,.487-.793V13.822a.881.881,0,0,0-.587-.831,4.409,4.409,0,0,1-2.936-4.146V6.2a4.4,4.4,0,1,1,8.807,0V8.845a4.409,4.409,0,0,1-2.936,4.146.881.881,0,0,0-.587.831V15.01a.881.881,0,0,0,.487.788,37.639,37.639,0,0,0,4.519,1.809c1.952.65,2.04,1.782,2.04,1.806V24.7h1.761V19.413c0-.1-.037-2.409-3.244-3.478a39.406,39.406,0,0,1-3.8-1.484V14.41a6.175,6.175,0,0,0,3.523-5.565V6.2a6.165,6.165,0,0,0-12.33,0Z" transform="translate(-307.347 1485.226)" fill="#0667fb"/>
      <rect id="Rectangle_13851" data-name="Rectangle 13851" width="2" height="2" transform="translate(-160 1508.587)" fill="#0b1b31"/>
      <rect id="Rectangle_13853" data-name="Rectangle 13853" width="2" height="2" transform="translate(-157 1508.587)" fill="#0b1b31"/>
      <rect id="Rectangle_13854" data-name="Rectangle 13854" width="2" height="2" transform="translate(-163 1508.587)" fill="#0b1b31"/>
    </g>
  </g>
</svg>
