<svg xmlns="http://www.w3.org/2000/svg" xmlns:xlink="http://www.w3.org/1999/xlink" width="48" height="48" viewBox="0 0 48 48">
  <defs>
    <clipPath id="clip-Feature_2">
      <rect width="48" height="48"/>
    </clipPath>
  </defs>
  <g id="Feature_2" data-name="Feature 2" clip-path="url(#clip-Feature_2)">
    <g id="outline" transform="translate(-1 1.6)">
      <path id="Path_18232" data-name="Path 18232" d="M14.3,19.733h6.133a2.3,2.3,0,0,0,2.3-2.3V9.767A.767.767,0,0,0,21.967,9h-9.2A.767.767,0,0,0,12,9.767v7.667A2.3,2.3,0,0,0,14.3,19.733Zm-.767-9.2H21.2v1.533H13.533Zm0,3.067H21.2v3.833a.767.767,0,0,1-.767.767H14.3a.767.767,0,0,1-.767-.767Z" transform="translate(-2.333 -0.933)" fill="#0b1b31"/>
      <path id="Path_18233" data-name="Path 18233" d="M6.3,24.3A2.3,2.3,0,0,0,4,26.6v4.6a.767.767,0,0,0,.767.767H7.833A.767.767,0,0,0,8.6,31.2V28.9h1.533v5.367a.767.767,0,0,0,.767.767h.767V38.1h-6.9A.767.767,0,0,0,4,38.867V45a.767.767,0,0,0,.767.767H6.3a2.3,2.3,0,0,0,2.3-2.3V42.7h6.9a.751.751,0,0,0,.266-.054L17.8,46.714V49.6a.767.767,0,0,0,.767.767H24.7a.767.767,0,0,0,.767-.767V48.067a2.3,2.3,0,0,0-2.3-2.3h-.293L17.507,35.033H20.1a.767.767,0,0,0,.767-.767V28.9H24.7A2.3,2.3,0,0,0,27,26.6V22.767A.767.767,0,0,0,26.233,22H23.167a.767.767,0,0,0-.767.767V24.3Zm.767,19.167a.767.767,0,0,1-.767.767H5.533v-4.6H7.067Zm.767-16.1a.767.767,0,0,0-.767.767v2.3H5.533V26.6a.767.767,0,0,1,.767-.767h7.667a.767.767,0,0,1,.756.9.832.832,0,0,1-.838.633Zm6.9,13.8H8.6V39.633h3.833a.767.767,0,0,0,.767-.767V37.514l1.533,3.067ZM23.167,47.3a.767.767,0,0,1,.767.767v.767h-4.6V47.3ZM21.16,45.767H19.04L13.674,35.033h2.119ZM19.333,33.5H11.667V28.9h2.218a2.363,2.363,0,0,0,2.351-1.917,2.308,2.308,0,0,0-.113-1.15h3.211Zm1.533-7.667h2.3a.767.767,0,0,0,.767-.767V23.533h1.533V26.6a.767.767,0,0,1-.767.767H20.867Z" transform="translate(-0.467 -3.967)" fill="#0b1b31"/>
      <path id="Path_18234" data-name="Path 18234" d="M55.167,27.133h-2.3V21.767A.767.767,0,0,0,52.1,21H42.9a.767.767,0,0,0-.767.767v.767H38.3a2.3,2.3,0,0,0-2.3,2.3v4.6a.767.767,0,0,0,.767.767h3.067a.767.767,0,0,0,.767-.767v-2.3h1.533v6.9a.767.767,0,0,0,.767.767h.767v4.126l-4.014,2.007H36.767A.767.767,0,0,0,36,41.7v6.133a.767.767,0,0,0,.767.767H38.3a2.3,2.3,0,0,0,2.3-2.3V45.24l7.243-3.617a.767.767,0,0,0,.424-.69v8.433a.767.767,0,0,0,.767.767h6.133a.767.767,0,0,0,.767-.767V47.833a2.3,2.3,0,0,0-2.3-2.3h-.767v-6.9a.771.771,0,0,0-.129-.426L50.465,34.8H52.1a.767.767,0,0,0,.767-.767v-2.3h2.3a.767.767,0,0,0,.767-.767V27.9A.767.767,0,0,0,55.167,27.133ZM42.133,25.6h-2.3a.767.767,0,0,0-.767.767v2.3H37.533V24.833a.767.767,0,0,1,.767-.767h3.833ZM39.067,46.3a.767.767,0,0,1-.767.767h-.767v-4.6h1.533Zm7.667-9.2v3.36L40.6,43.526V42.174l4.176-2.084a.767.767,0,0,0,.424-.69V34.8h1.533Zm6.9,9.967a.767.767,0,0,1,.767.767V48.6H49.8V47.067Zm-2.3-8.2v6.67H49.8V39.4a.771.771,0,0,0-.129-.426l-1.4-2.1V34.8h.357Zm0-5.6H43.667V22.533h7.667v4.6H49.8V24.915a2.363,2.363,0,0,0-1.917-2.351A2.3,2.3,0,0,0,45.2,24.833v4.6a2.3,2.3,0,0,0,2.3,2.3h3.833ZM54.4,30.2H47.5a.767.767,0,0,1-.767-.767v-4.6a.767.767,0,0,1,.767-.767.877.877,0,0,1,.133.011.832.832,0,0,1,.633.838V27.9a.767.767,0,0,0,.767.767H54.4Z" transform="translate(-7.933 -3.733)" fill="#0667fb"/>
      <path id="Path_18235" data-name="Path 18235" d="M46.3,15.733h6.133a2.3,2.3,0,0,0,2.3-2.3V5.767A.767.767,0,0,0,53.967,5h-9.2A.767.767,0,0,0,44,5.767v7.667A2.3,2.3,0,0,0,46.3,15.733Zm-.767-9.2H53.2V8.067H45.533Zm0,3.067H53.2v3.833a.767.767,0,0,1-.767.767H46.3a.767.767,0,0,1-.767-.767Z" transform="translate(-9.8)" fill="#0667fb"/>
      <rect id="Rectangle_13845" data-name="Rectangle 13845" width="5" height="1" transform="translate(28 5.4)" fill="#0b1b31"/>
      <rect id="Rectangle_13846" data-name="Rectangle 13846" width="3" height="1" transform="translate(30 8.4)" fill="#0b1b31"/>
      <rect id="Rectangle_13847" data-name="Rectangle 13847" width="6" height="1" transform="translate(2 11.4)" fill="#0b1b31"/>
      <rect id="Rectangle_13848" data-name="Rectangle 13848" width="4" height="1" transform="translate(4 14.4)" fill="#0b1b31"/>
      <rect id="Rectangle_13849" data-name="Rectangle 13849" width="2" height="2" transform="translate(2 29.4)" fill="#0b1b31"/>
      <rect id="Rectangle_13850" data-name="Rectangle 13850" width="3" height="2" transform="translate(5 29.4)" fill="#0b1b31"/>
    </g>
  </g>
</svg>
