<svg xmlns="http://www.w3.org/2000/svg" width="11.035" height="11.901" viewBox="0 0 11.035 11.901"><defs><style>.a{fill:#6e829c;}</style></defs><path class="a" d="M4.588,11.9a1.122,1.122,0,0,1-1.121-1.121V6.91L.62,4.064A2.112,2.112,0,0,1,0,2.569V1.617A1.621,1.621,0,0,1,1.616,0h7.8a1.62,1.62,0,0,1,1.617,1.615v.945a2.14,2.14,0,0,1-.643,1.518L7.444,6.922V8.839a2.105,2.105,0,0,1-.739,1.6L5.318,11.631A1.115,1.115,0,0,1,4.588,11.9ZM1.617,1.5a.118.118,0,0,0-.117.118v.952A.6.6,0,0,0,1.678,3L4.566,5.889a1.365,1.365,0,0,1,.4.968v3.1L5.73,9.3a.612.612,0,0,0,.214-.464V6.867a1.385,1.385,0,0,1,.416-.984L9.349,3a.623.623,0,0,0,.186-.442V1.617A.118.118,0,0,0,9.418,1.5Z" transform="translate(0 -0.001)"/></svg>