<svg xmlns="http://www.w3.org/2000/svg" width="19.825" height="17.774" viewBox="0 0 19.825 17.774">
  <g id="Group_6268" data-name="Group 6268" transform="translate(96.537 -82.414)">
    <path id="Path_14297" data-name="Path 14297" d="M-76.712,97.646l-3.665-2.54v1.726h-2.657c.144-.117.288-.236.424-.366.029-.027.051-.061.08-.09a7.618,7.618,0,0,0,1.54-2.012h-1.193c-.015,0-.029-.015-.044-.02h-.652c-.039.053-.084.1-.124.152a.691.691,0,0,0-.132.122,5.361,5.361,0,0,1-.633.692,5.892,5.892,0,0,1-3.189,1.421,5.316,5.316,0,0,1-3.681-1.024,5.409,5.409,0,0,1-.671-.594.812.812,0,0,0-1.147-.06.811.811,0,0,0-.06,1.146l.031.033a7.1,7.1,0,0,0,.664.6h-3.9a.813.813,0,0,0-.813.813.813.813,0,0,0,.813.813h15.347v1.726Z" fill="#475364"/>
    <path id="Path_14298" data-name="Path 14298" d="M-90.534,87.364c.029.019.377.23.654.381l.084.2c-.084.281-.179.658-.195.731a.914.914,0,0,0,.245.859l.415.415a.929.929,0,0,0,.87.243c.112-.028.457-.119.72-.193l.208.085c.143.262.342.6.381.654a.922.922,0,0,0,.777.432h.589a.926.926,0,0,0,.78-.435s.222-.363.38-.652l.2-.084c.28.083.656.175.732.193a.916.916,0,0,0,.859-.246l.416-.415a.92.92,0,0,0,.244-.871l-.2-.717.084-.207c.263-.143.593-.342.652-.381a.92.92,0,0,0,.432-.78V86a.911.911,0,0,0-.432-.775h0S-82,85-82.293,84.84l-.084-.2c.082-.281.176-.657.193-.731a.918.918,0,0,0-.246-.859l-.417-.418a.914.914,0,0,0-.856-.238c-.054.012-.439.11-.729.194l-.205-.085c-.143-.267-.345-.6-.382-.654a.906.906,0,0,0-.773-.431h-.588a.909.909,0,0,0-.779.434c-.029.045-.238.382-.382.653l-.2.083c-.3-.088-.681-.183-.731-.194a.918.918,0,0,0-.86.246l-.415.415a.913.913,0,0,0-.244.862c.02.082.112.446.193.725l-.084.205c-.259.141-.591.338-.653.38a.908.908,0,0,0-.433.777v.582A.91.91,0,0,0-90.534,87.364Zm2.014-2.931c-.034-.09-.094-.3-.179-.632l.125-.125c.228.058.53.141.634.178l.231.088,1.105-.456.1-.226c.054-.117.216-.4.328-.578h.182c.111.185.271.463.329.576l.1.226,1.1.455.23-.086c.116-.043.42-.126.633-.181l.127.128c-.055.214-.139.521-.18.633l-.088.231.457,1.1.224.1c.116.055.394.216.581.329v.187c-.187.111-.463.272-.561.322l-.247.1-.456,1.108.087.232c.041.106.121.4.18.631l-.128.13c-.216-.055-.523-.138-.632-.178l-.232-.088-1.1.456-.1.225c-.055.119-.215.395-.328.58h-.183c-.112-.186-.274-.465-.328-.576l-.105-.226-1.109-.461-.225.1c-.113.042-.415.124-.633.18l-.121-.124c.056-.216.139-.524.18-.635l.088-.231-.457-1.1-.226-.1c-.119-.056-.4-.216-.578-.327V86.2c.187-.112.466-.273.575-.329l.229-.1.453-1.1Z" transform="translate(0 1)" fill="#475364"/>
    <path id="Path_14299" data-name="Path 14299" d="M-86.1,88.205h.013a1.922,1.922,0,0,0,1.911-1.9,1.9,1.9,0,0,0-.929-1.646h0a1.968,1.968,0,0,0-1.973-.014,1.592,1.592,0,0,0-.663.655,1.982,1.982,0,0,0,.015,1.983A1.9,1.9,0,0,0-86.1,88.205Zm-.826-1.91a.837.837,0,0,1,.837-.836h0a.827.827,0,0,1,.585.241.835.835,0,0,1,.247.6h0a.837.837,0,0,1-.836.836A.837.837,0,0,1-86.925,86.295Z" transform="translate(0 1)" fill="#475364"/>
    <path id="Path_14300" data-name="Path 14300" d="M-92.189,87.521c.011-.017.024-.031.036-.048.1-.147.221-.279.334-.416a5.8,5.8,0,0,1-.056-.762,5.775,5.775,0,0,1,.242-1.647,8.061,8.061,0,0,0-.638.546l-.014-.035c-.132.116-.253.243-.375.368l-.014.014a7.4,7.4,0,0,0-1.317,1.852L-94,87.42a7.27,7.27,0,0,0-.307.714c-.009.024-.021.047-.03.071h0a7.306,7.306,0,0,0-.428,2.462l-.955.077,2.075,3.514,1.541-3.8-1.023.085A5.591,5.591,0,0,1-92.189,87.521Z" fill="#475364"/>
    <path id="Path_14301" data-name="Path 14301" d="M-79.9,90.3c0-.026,0-.052,0-.078v-.012a7.454,7.454,0,0,0-.4-2.226c-.055-.167-.128-.322-.195-.482a5.9,5.9,0,0,1-1.07,2.283c.018.13.028.261.035.393,0,.063.007.127.007.19,0,.121,0,.24-.008.36-.007.141-.013.282-.03.421a5.939,5.939,0,0,1-.477,1.767l1.713.09a7.568,7.568,0,0,0,.421-2.233l.006,0C-79.889,90.61-79.894,90.453-79.9,90.3Z" fill="#475364"/>
  </g>
</svg>
