<svg xmlns="http://www.w3.org/2000/svg" width="16.063" height="16" viewBox="0 0 16.063 16"><defs><style>.a{fill:#475364;}</style></defs><g transform="translate(0.063)"><path class="a" d="M1.437,10.479h9.4a1.5,1.5,0,0,0,1.5-1.5V7.021a1.5,1.5,0,0,0-1.5-1.5h-9.4a1.5,1.5,0,0,0-1.5,1.5V8.979A1.5,1.5,0,0,0,1.437,10.479Zm-.2-3.458a.2.2,0,0,1,.2-.2h9.4a.2.2,0,0,1,.2.2V8.979a.2.2,0,0,1-.2.2h-9.4a.2.2,0,0,1-.2-.2Z"/><path class="a" d="M1.5,4.958h5A1.5,1.5,0,0,0,8,3.458V1.5A1.5,1.5,0,0,0,6.5,0h-5A1.5,1.5,0,0,0,0,1.5V3.458A1.5,1.5,0,0,0,1.5,4.958ZM1.3,1.5a.2.2,0,0,1,.2-.2h5a.2.2,0,0,1,.2.2V3.458a.2.2,0,0,1-.2.2h-5a.2.2,0,0,1-.2-.2Z"/><path class="a" d="M14.5,11.042H1.5a1.5,1.5,0,0,0-1.5,1.5V14.5A1.5,1.5,0,0,0,1.5,16h13A1.5,1.5,0,0,0,16,14.5V12.542A1.5,1.5,0,0,0,14.5,11.042Zm.2,3.458a.2.2,0,0,1-.2.2H1.5a.2.2,0,0,1-.2-.2V12.542a.2.2,0,0,1,.2-.2h13a.2.2,0,0,1,.2.2Z"/><path class="a" d="M10.924,3.129h2.849a.91.91,0,0,1,.909.91V6.524a.91.91,0,0,1-.909.91h0a.65.65,0,0,0,0,1.3,2.212,2.212,0,0,0,2.21-2.21V4.039a2.212,2.212,0,0,0-2.21-2.21H10.924V1.247L8.791,2.479l2.133,1.232Z"/></g></svg>
