<svg xmlns="http://www.w3.org/2000/svg" width="38.054" height="33.915" viewBox="0 0 38.054 33.915"><defs><style>.a{fill:#7a869a;}</style></defs><g transform="translate(-94.295 -0.601)"><path class="a" d="M98.245,2.764h7.139a1.784,1.784,0,0,1,1.651,1.108,2.446,2.446,0,0,0,.232.439l1.682,2.51A2.468,2.468,0,0,0,111,7.914h12.747A1.793,1.793,0,0,1,125.533,9.7v5.964a1.084,1.084,0,0,0,1.084,1.084h0a1.083,1.083,0,0,0,1.083-1.084V9.7a3.949,3.949,0,0,0-3.949-3.949H110.835l-1.77-2.645A3.975,3.975,0,0,0,105.381.6H98.245a3.949,3.949,0,0,0-3.95,3.95V26a3.973,3.973,0,0,0,3.951,3.95h15.7a1.081,1.081,0,0,0,1.081-1.081h0a1.081,1.081,0,0,0-1.081-1.082h-15.7A1.8,1.8,0,0,1,96.458,26V4.551A1.791,1.791,0,0,1,98.245,2.764Z"/><path class="a" d="M124.55,18.916a1.156,1.156,0,0,0-1.156,1.156v5.489H117.9a1.155,1.155,0,0,0,0,2.311h5.489V33.36a1.156,1.156,0,1,0,2.311,0V27.872h5.489a1.155,1.155,0,0,0,0-2.311h-5.489V20.072a1.156,1.156,0,0,0-1.155-1.156Z"/></g></svg>