<svg xmlns="http://www.w3.org/2000/svg" width="23.508" height="28.563" viewBox="0 0 23.508 28.563">
  <defs><style>g{fill:#6e829c;}</style></defs>
  <g id="Group_6332" data-name="Group 6332" transform="translate(-1191 -140)">
    <g id="Group_6331" data-name="Group 6331" transform="translate(-8219 -19128)">
      <g id="Group_6330" data-name="Group 6330" transform="translate(9409.701 19267.701)">
        <path id="Path_14373" data-name="Path 14373" d="M21.3,4.745A10.975,10.975,0,0,1,14.455,1.6l-.548-.548a2.728,2.728,0,0,0-3.773,0L9.589,1.6A10.8,10.8,0,0,1,2.745,4.745,2.681,2.681,0,0,0,.3,7.394v3.252A20.584,20.584,0,0,0,10.743,28.515a2.675,2.675,0,0,0,1.315.346H12.1a2.471,2.471,0,0,0,1.262-.345A20.581,20.581,0,0,0,23.807,10.646V7.393A2.772,2.772,0,0,0,21.3,4.745Zm.463,5.9A18.584,18.584,0,0,1,12.35,26.772a.613.613,0,0,1-.316.088.626.626,0,0,1-.322-.091A18.5,18.5,0,0,1,2.25,10.647V7.393a.672.672,0,0,1,.624-.666A12.92,12.92,0,0,0,10.988,3l.548-.546a.645.645,0,0,1,.465-.2h.007a.714.714,0,0,1,.467.194L13.024,3A12.928,12.928,0,0,0,21.14,6.725a.674.674,0,0,1,.625.664Z"/>
        <g id="download_1" data-name="download 1">
          <path id="Path_14372" data-name="Path 14372" d="M15.62,11.844V9.563c0-4.611-6.989-4.611-6.989,0v2.281A3.115,3.115,0,0,0,6.3,14.805v3.641A3.046,3.046,0,0,0,9.333,21.5h5.608A3.077,3.077,0,0,0,18,18.446V14.805A3.105,3.105,0,0,0,15.62,11.844Zm-5.1-2.281a1.6,1.6,0,1,1,3.2,0V11.8h-3.2ZM16.1,18.446a1.182,1.182,0,0,1-1.16,1.165H9.359a1.181,1.181,0,0,1-1.165-1.165V14.805a1.14,1.14,0,0,1,1.163-1.117h5.584a1.139,1.139,0,0,1,1.16,1.116Z"/>
        </g>
      </g>
    </g>
    <circle id="Ellipse_137" data-name="Ellipse 137" cx="1" cy="1" r="1" transform="translate(1202 156)"/>
  </g>
</svg>
