<svg xmlns="http://www.w3.org/2000/svg" width="40" height="40" viewBox="0 0 40 40"><defs><style>.a{fill:#ffffff;}</style></defs><path class="a" d="M38.2,6.563H30a.586.586,0,0,0,0,1.172h8.2a.633.633,0,0,1,.632.632V30.93a.633.633,0,0,1-.632.632H1.8a.633.633,0,0,1-.632-.632V8.367A.633.633,0,0,1,1.8,7.734H14.678V8.906H2.93a.586.586,0,0,0-.586.586V24.974a.586.586,0,0,0,1.172,0v-14.9H14.678v3.143l-2.509,1.2a.59.59,0,0,0-.333.529V24.5a.586.586,0,0,0,.333.529l7.578,3.621a.594.594,0,0,0,.505,0l4.26-2.036a.586.586,0,1,0-.505-1.057L20.586,27.2V18.939l6.406-3.061v8.257l-3.016,1.422a.586.586,0,0,0,.505,1.057l3.349-1.581a.586.586,0,0,0,.333-.529V14.949a.589.589,0,0,0-.333-.529l-2.509-1.2V10.078H36.484V29.219H3.516V24.5a.586.586,0,0,0-1.172,0v5.3a.586.586,0,0,0,.586.586H37.07a.586.586,0,0,0,.586-.586V9.492a.586.586,0,0,0-.586-.586H25.322V7.734h4.991a.586.586,0,0,0,0-1.172H25.322V5.391h5.254a.586.586,0,0,0,.586-.586V3.415a1.758,1.758,0,1,0-1.172,0v.8H24.736a.586.586,0,0,0-.586.586V6.563H20.586V3.415a1.758,1.758,0,1,0-1.172,0V6.563H15.85V4.8a.586.586,0,0,0-.586-.586H10.01v-.8a1.758,1.758,0,1,0-1.172,0V4.8a.586.586,0,0,0,.586.586h5.254V6.563H1.8A1.806,1.806,0,0,0,0,8.367V30.93a1.806,1.806,0,0,0,1.8,1.8h12.7a5.584,5.584,0,0,1-2.1,3.75H9.922a1.758,1.758,0,0,0,0,3.516H30.078a1.758,1.758,0,0,0,0-3.516H27.59a5.639,5.639,0,0,1-2.1-3.75H38.2a1.806,1.806,0,0,0,1.8-1.8V8.367A1.806,1.806,0,0,0,38.2,6.563Zm-7.62-5.391a.586.586,0,1,1-.586.586A.586.586,0,0,1,30.576,1.172ZM20,1.172a.586.586,0,1,1-.586.586A.586.586,0,0,1,20,1.172Zm-10.576,0a.586.586,0,1,1-.586.586A.586.586,0,0,1,9.424,1.172Zm6.426,8.906h3.564v.88l-3.564,1.7Zm10.369,4.871L20,17.92l-6.219-2.971L20,11.978Zm-13.211.929,6.406,3.061V27.2l-6.406-3.061ZM24.15,12.662l-3.564-1.7v-.88H24.15Zm0-4.927V8.906H20.586V7.734Zm-4.736,0V8.906H15.85V7.734Zm11.25,30.508a.586.586,0,0,1-.586.586H9.922a.586.586,0,0,1,0-1.172H30.078A.586.586,0,0,1,30.664,38.242Zm-4.755-1.758H14.091a6.608,6.608,0,0,0,1.6-3.75h8.629A6.608,6.608,0,0,0,25.909,36.484Zm0,0"/></svg>