<svg xmlns="http://www.w3.org/2000/svg" width="39.98" height="40" viewBox="0 0 39.98 40"><defs><style>.a{fill:#6e829c;}</style></defs><g transform="translate(0 0.001)"><path class="a" d="M110.667,288a6.667,6.667,0,1,0,6.667,6.667A6.667,6.667,0,0,0,110.667,288Zm0,12A5.333,5.333,0,1,1,116,294.667,5.333,5.333,0,0,1,110.667,300Zm0,0" transform="translate(-95.334 -264.001)"/><path class="a" d="M154.667,322c.814,0,1.333.395,1.333.667h1.333a2.176,2.176,0,0,0-2-1.933V320H154v.733a2.174,2.174,0,0,0-2,1.933c0,1.122,1.171,2,2.667,2,.814,0,1.333.395,1.333.667s-.519.667-1.333.667-1.333-.395-1.333-.667H152a2.176,2.176,0,0,0,2,1.933V328h1.333v-.733a2.174,2.174,0,0,0,2-1.933c0-1.122-1.171-2-2.667-2-.814,0-1.333-.395-1.333-.667S153.853,322,154.667,322Zm0,0" transform="translate(-139.334 -293.334)"/><path class="a" d="M34,38.666H6v-16H16.666a2,2,0,0,0,2-2V4H26v8h8v9.333h1.333V11.056L26.942,2.666H18.666V2a2,2,0,0,0-2-2H2A2,2,0,0,0,0,2V20.666a2,2,0,0,0,2,2H4.666V40H35.333V30.666H34ZM27.333,4.942l5.724,5.724H27.333Zm-26,15.724V2A.667.667,0,0,1,2,1.332H16.666A.667.667,0,0,1,17.333,2V20.666a.667.667,0,0,1-.667.667H2A.667.667,0,0,1,1.333,20.666Zm0,0"/><path class="a" d="M256,200h1.333v1.333H256Zm0,0" transform="translate(-234.667 -183.334)"/><path class="a" d="M288,200h8v1.333h-8Zm0,0" transform="translate(-264 -183.334)"/><path class="a" d="M256,168h1.333v1.333H256Zm0,0" transform="translate(-234.667 -154.001)"/><path class="a" d="M288,168h8v1.333h-8Zm0,0" transform="translate(-264 -154.001)"/><path class="a" d="M256,232h1.333v1.333H256Zm0,0" transform="translate(-234.667 -212.668)"/><path class="a" d="M288,232h8v1.333h-8Zm0,0" transform="translate(-264 -212.668)"/><path class="a" d="M256,264h1.333v1.333H256Zm0,0" transform="translate(-234.667 -242.001)"/><path class="a" d="M288,264h8v1.333h-8Zm0,0" transform="translate(-264 -242.001)"/><path class="a" d="M38.667,24H24v4.667H38.667Zm-1.333,3.333h-12v-2h12Zm0,0" transform="translate(-22 -22.001)"/><path class="a" d="M34.667,88H33.333A1.333,1.333,0,0,0,32,89.333v1.333A1.333,1.333,0,0,0,33.333,92h1.333A1.333,1.333,0,0,0,36,90.667V89.333A1.333,1.333,0,0,0,34.667,88Zm-1.333,2.667V89.333h1.333v1.333Zm0,0" transform="translate(-29.334 -80.668)"/><path class="a" d="M90.667,88H89.333A1.333,1.333,0,0,0,88,89.333v1.333A1.333,1.333,0,0,0,89.333,92h1.333A1.333,1.333,0,0,0,92,90.667V89.333A1.333,1.333,0,0,0,90.667,88Zm-1.333,2.667V89.333h1.333v1.333Zm0,0" transform="translate(-80.667 -80.668)"/><path class="a" d="M146.667,88h-1.333A1.333,1.333,0,0,0,144,89.333v1.333A1.333,1.333,0,0,0,145.333,92h1.333A1.333,1.333,0,0,0,148,90.667V89.333A1.333,1.333,0,0,0,146.667,88Zm-1.333,2.667V89.333h1.333v1.333Zm0,0" transform="translate(-132 -80.668)"/><path class="a" d="M34.667,144H33.333A1.333,1.333,0,0,0,32,145.333v1.333A1.333,1.333,0,0,0,33.333,148h1.333A1.333,1.333,0,0,0,36,146.667v-1.333A1.333,1.333,0,0,0,34.667,144Zm-1.333,2.667v-1.333h1.333v1.333Zm0,0" transform="translate(-29.334 -132.001)"/><path class="a" d="M90.667,144H89.333A1.333,1.333,0,0,0,88,145.333v1.333A1.333,1.333,0,0,0,89.333,148h1.333A1.333,1.333,0,0,0,92,146.667v-1.333A1.333,1.333,0,0,0,90.667,144Zm-1.333,2.667v-1.333h1.333v1.333Zm0,0" transform="translate(-80.667 -132.001)"/><path class="a" d="M146.667,144h-1.333A1.333,1.333,0,0,0,144,145.333v1.333A1.333,1.333,0,0,0,145.333,148h1.333A1.333,1.333,0,0,0,148,146.667v-1.333A1.333,1.333,0,0,0,146.667,144Zm-1.333,2.667v-1.333h1.333v1.333Zm0,0" transform="translate(-132 -132.001)"/><path class="a" d="M34.667,200H33.333A1.333,1.333,0,0,0,32,201.333v1.333A1.333,1.333,0,0,0,33.333,204h1.333A1.333,1.333,0,0,0,36,202.667v-1.333A1.333,1.333,0,0,0,34.667,200Zm-1.333,2.667v-1.333h1.333v1.333Zm0,0" transform="translate(-29.334 -183.334)"/><path class="a" d="M90.667,200H89.333A1.333,1.333,0,0,0,88,201.333v1.333A1.333,1.333,0,0,0,89.333,204h1.333A1.333,1.333,0,0,0,92,202.667v-1.333A1.333,1.333,0,0,0,90.667,200Zm-1.333,2.667v-1.333h1.333v1.333Zm0,0" transform="translate(-80.667 -183.334)"/><path class="a" d="M146.667,200h-1.333A1.333,1.333,0,0,0,144,201.333v1.333A1.333,1.333,0,0,0,145.333,204h1.333A1.333,1.333,0,0,0,148,202.667v-1.333A1.333,1.333,0,0,0,146.667,200Zm-1.333,2.667v-1.333h1.333v1.333Zm0,0" transform="translate(-132 -183.334)"/><path class="a" d="M296.073,249.033a2.047,2.047,0,0,0-2.828,0l-11.429,11.428a.675.675,0,0,0-.133.193l-1.609,3.495a.667.667,0,0,0,.884.884l3.495-1.609a.668.668,0,0,0,.193-.133l11.428-11.429A2,2,0,0,0,296.073,249.033Zm-12.287,13.229-1.747.8.8-1.747,8.521-8.522.943.943Zm9.467-9.467-.943-.942.467-.467.943.943Zm1.88-1.88-.471.471-.943-.943.472-.471a.682.682,0,0,1,.942,0A.667.667,0,0,1,295.133,250.915Zm0,0" transform="translate(-256.679 -227.762)"/></g></svg>