<svg xmlns="http://www.w3.org/2000/svg" width="42.759" height="40" viewBox="0 0 42.759 40"><defs><style>.a{fill:#6e829c;}</style></defs><g transform="translate(0 1.168)"><path class="a" d="M.69,16.073H4.516a10.257,10.257,0,0,0,.971,2.337L2.779,21.117a.69.69,0,0,0,0,.976L5.7,25.019a.69.69,0,0,0,.975,0l2.708-2.709a10.25,10.25,0,0,0,2.336.971v3.826a.69.69,0,0,0,.69.69h4.138a.69.69,0,0,0,.69-.69V23.282a10.25,10.25,0,0,0,2.336-.971l2.708,2.709a.71.71,0,0,0,.975,0l2.926-2.926a.69.69,0,0,0,0-.976L23.478,18.41a10.256,10.256,0,0,0,.971-2.337h3.826a.69.69,0,0,0,.69-.69V11.246a.69.69,0,0,0-.69-.69H24.45a10.26,10.26,0,0,0-.971-2.336l2.708-2.707a.69.69,0,0,0,0-.976L23.261,1.611a.69.69,0,0,0-.975,0L19.577,4.319a10.279,10.279,0,0,0-2.336-.971V-.478a.69.69,0,0,0-.69-.69H12.414a.69.69,0,0,0-.69.69V3.348a10.279,10.279,0,0,0-2.336.971L6.68,1.611a.71.71,0,0,0-.975,0L2.779,4.537a.69.69,0,0,0,0,.976L5.487,8.22a10.259,10.259,0,0,0-.971,2.336H.69a.69.69,0,0,0-.69.69v4.138a.69.69,0,0,0,.69.69Zm.69-4.138H5.055a.69.69,0,0,0,.674-.542A8.873,8.873,0,0,1,6.937,8.487a.69.69,0,0,0-.093-.86l-2.6-2.6L6.192,3.073l2.6,2.6a.69.69,0,0,0,.861.093,8.887,8.887,0,0,1,2.906-1.208.69.69,0,0,0,.542-.674V.211h2.759V3.887a.69.69,0,0,0,.542.674A8.887,8.887,0,0,1,19.31,5.769a.69.69,0,0,0,.861-.093l2.6-2.6,1.95,1.951-2.6,2.6a.69.69,0,0,0-.093.861,8.871,8.871,0,0,1,1.207,2.907.69.69,0,0,0,.674.542h3.677v2.759H23.909a.69.69,0,0,0-.674.542,8.862,8.862,0,0,1-1.207,2.905.69.69,0,0,0,.093.86l2.6,2.6-1.951,1.952-2.6-2.6a.69.69,0,0,0-.861-.093A8.866,8.866,0,0,1,16.4,22.069a.69.69,0,0,0-.543.674v3.676H13.1V22.742a.69.69,0,0,0-.543-.674A8.866,8.866,0,0,1,9.655,20.86a.69.69,0,0,0-.861.093l-2.6,2.6-1.95-1.951,2.6-2.6a.69.69,0,0,0,.093-.861,8.876,8.876,0,0,1-1.208-2.907.689.689,0,0,0-.674-.541H1.379Zm0,0"/><path class="a" d="M135.517,139.866A5.517,5.517,0,1,0,130,134.349,5.517,5.517,0,0,0,135.517,139.866Zm0-9.655a4.138,4.138,0,1,1-4.138,4.138A4.138,4.138,0,0,1,135.517,130.211Zm0,0" transform="translate(-121.035 -121.035)"/><path class="a" d="M107.586,114A7.586,7.586,0,1,0,100,106.418,7.586,7.586,0,0,0,107.586,114Zm0-13.793a6.207,6.207,0,1,1-6.207,6.207A6.207,6.207,0,0,1,107.586,100.211Zm0,0" transform="translate(-93.103 -93.103)"/><path class="a" d="M39.31,291.246v-5.517a.69.69,0,0,0-.69-.69H37.241v-5.517a.69.69,0,0,0-.69-.69H30.345a.69.69,0,0,0-.69.69v5.517H26.207a.69.69,0,0,0-.69.69v5.517H3.448A3.453,3.453,0,0,0,0,294.694v1.379a3.452,3.452,0,0,0,3.448,3.448H39.31a3.452,3.452,0,0,0,3.448-3.448v-1.379A3.453,3.453,0,0,0,39.31,291.246Zm-1.379,0H33.1v-4.828h4.828Zm-6.9-11.034h4.828v4.828H31.034ZM26.9,286.418h4.828v4.828H26.9Zm14.483,9.655a2.069,2.069,0,0,1-2.069,2.069H3.448a2.069,2.069,0,0,1-2.069-2.069v-1.379a2.069,2.069,0,0,1,2.069-2.069H39.31a2.069,2.069,0,0,1,2.069,2.069Zm0,0" transform="translate(0 -260.69)"/><path class="a" d="M282.069,488.832a2.069,2.069,0,1,0,2.069,2.069A2.069,2.069,0,0,0,282.069,488.832Zm0,2.759a.69.69,0,1,1,.69-.69A.69.69,0,0,1,282.069,491.591Zm0,0" transform="translate(-260.69 -456.207)"/><path class="a" d="M182.069,488.832a2.069,2.069,0,1,0,2.069,2.069A2.069,2.069,0,0,0,182.069,488.832Zm0,2.759a.69.69,0,1,1,.69-.69A.69.69,0,0,1,182.069,491.591Zm0,0" transform="translate(-167.586 -456.207)"/><path class="a" d="M382.069,488.832a2.069,2.069,0,1,0,2.069,2.069A2.069,2.069,0,0,0,382.069,488.832Zm0,2.759a.69.69,0,1,1,.69-.69A.69.69,0,0,1,382.069,491.591Zm0,0" transform="translate(-353.793 -456.207)"/><path class="a" d="M82.069,488.832a2.069,2.069,0,1,0,2.069,2.069A2.069,2.069,0,0,0,82.069,488.832Zm0,2.759a.69.69,0,1,1,.69-.69A.69.69,0,0,1,82.069,491.591Zm0,0" transform="translate(-74.483 -456.207)"/><path class="a" d="M482.069,488.832a2.069,2.069,0,1,0,2.069,2.069A2.069,2.069,0,0,0,482.069,488.832Zm0,2.759a.69.69,0,1,1,.69-.69A.69.69,0,0,1,482.069,491.591Zm0,0" transform="translate(-446.897 -456.207)"/></g></svg>