<svg xmlns="http://www.w3.org/2000/svg" width="41.333" height="40" viewBox="0 0 41.333 40"><defs><style>.a{fill:#6e829c;}</style></defs><g transform="translate(0 -0.125)"><path class="a" d="M3.333,36.125H20.667V34.791H3.333a2,2,0,0,1-2-2V3.458a2,2,0,0,1,2-2H32.666a2,2,0,0,1,2,2V18.791H36V3.458A3.337,3.337,0,0,0,32.666.125H3.333A3.337,3.337,0,0,0,0,3.458V32.791A3.338,3.338,0,0,0,3.333,36.125Zm0,0"/><path class="a" d="M62.344,62.469h1.333V63.8H62.344Zm0,0" transform="translate(-59.677 -59.677)"/><path class="a" d="M124.676,62.469h1.334V63.8h-1.334Zm0,0" transform="translate(-119.343 -59.677)"/><path class="a" d="M187.016,62.469h1.333V63.8h-1.333Zm0,0" transform="translate(-179.016 -59.677)"/><path class="a" d="M62.344,124.8H93.01v1.334H62.344Zm0,0" transform="translate(-59.677 -119.343)"/><path class="a" d="M68.756,191.707,67.062,193.4a3.344,3.344,0,1,0,.943.943L69.7,192.65Zm-3.529,6.471a2,2,0,1,1,0-4,1.965,1.965,0,0,1,.857.2l-1.328,1.328.942.943,1.329-1.327a1.963,1.963,0,0,1,.2.857A2,2,0,0,1,65.227,198.178Zm0,0" transform="translate(-59.227 -183.387)"/><path class="a" d="M264.941,249.484h11.333v1.333H264.941Zm0,0" transform="translate(-253.608 -238.692)"/><path class="a" d="M264.941,311.82h4.667v1.333h-4.667Zm0,0" transform="translate(-253.608 -298.362)"/><path class="a" d="M405.2,311.82h9.333v1.333H405.2Zm0,0" transform="translate(-387.87 -298.362)"/><path class="a" d="M561.047,249.484h6.667v1.333h-6.667Zm0,0" transform="translate(-537.047 -238.692)"/><path class="a" d="M68.756,378.723l-1.693,1.693a3.344,3.344,0,1,0,.943.943l1.693-1.693Zm-3.529,6.471a2,2,0,0,1,0-4,1.967,1.967,0,0,1,.857.2l-1.328,1.328.942.942,1.329-1.327a1.964,1.964,0,0,1,.2.857A2,2,0,0,1,65.227,385.194Zm0,0" transform="translate(-59.227 -362.403)"/><path class="a" d="M264.941,436.492h11.333v1.333H264.941Zm0,0" transform="translate(-253.608 -417.701)"/><path class="a" d="M264.941,498.836h4.667v1.333h-4.667Zm0,0" transform="translate(-253.608 -477.378)"/><path class="a" d="M405.2,498.836h5.333v1.333H405.2Zm0,0" transform="translate(-387.87 -477.378)"/><path class="a" d="M561.047,436.492h2.667v1.333h-2.667Zm0,0" transform="translate(-537.047 -417.701)"/><path class="a" d="M68.756,565.738l-1.693,1.693a3.343,3.343,0,1,0,.943.943l1.693-1.693Zm-3.529,6.471a2,2,0,0,1,0-4,1.961,1.961,0,0,1,.857.2l-1.328,1.328.942.943,1.329-1.328a1.966,1.966,0,0,1,.2.857A2,2,0,0,1,65.227,572.209Zm0,0" transform="translate(-59.227 -541.418)"/><path class="a" d="M264.941,623.512h8.667v1.334h-8.667Zm0,0" transform="translate(-253.608 -596.721)"/><path class="a" d="M264.941,685.852h4.667v1.333h-4.667Zm0,0" transform="translate(-253.608 -656.394)"/><path class="a" d="M405.2,685.852h2.667v1.333H405.2Zm0,0" transform="translate(-387.87 -656.394)"/><path class="a" d="M508.711,487.664a10,10,0,1,0-10-10A10,10,0,0,0,508.711,487.664Zm0-18.667a8.667,8.667,0,1,1-8.667,8.667A8.667,8.667,0,0,1,508.711,469Zm0,0" transform="translate(-477.378 -447.539)"/><path class="a" d="M610.713,586.831l-1.193.6,1.333,2.667a.666.666,0,0,0,.49.36.745.745,0,0,0,.1.009.668.668,0,0,0,.472-.2l8-8-.942-.943-7.346,7.346Zm0,0" transform="translate(-583.447 -556.337)"/></g></svg>