<svg xmlns="http://www.w3.org/2000/svg" width="16.838" height="16" viewBox="0 0 16.838 16">
  <g id="Group_5409" data-name="Group 5409" transform="translate(-2197 -14984)">
    <g id="Group_5401" data-name="Group 5401" transform="translate(2197.919 14984.371)">
      <path id="Path_13468" data-name="Path 13468" d="M5.271,14.371a.7.7,0,1,1,0-1.4h5.417a.7.7,0,0,1,0,1.4Z" fill="#ffffff"/>
      <path id="Path_13469" data-name="Path 13469" d="M2.038,12.217A1.959,1.959,0,0,1,.081,10.26V3.586A1.959,1.959,0,0,1,2.038,1.629H13.962a1.959,1.959,0,0,1,1.957,1.957V10.26a1.959,1.959,0,0,1-1.957,1.957ZM2.326,3.03a.845.845,0,0,0-.845.845v6.1a.846.846,0,0,0,.845.845H13.674a.846.846,0,0,0,.845-.845v-6.1a.845.845,0,0,0-.845-.845Z" fill="#ffffff"/>
      <path id="Path_13470" data-name="Path 13470" d="M10.878,9.471a.7.7,0,0,1-.7-.7V5.356a.7.7,0,1,1,1.4,0V8.771A.7.7,0,0,1,10.878,9.471Z" fill="#ffffff"/>
      <path id="Path_13471" data-name="Path 13471" d="M8,9.47a.7.7,0,0,1-.7-.7V6.2a.7.7,0,0,1,1.4,0V8.771A.7.7,0,0,1,8,9.47Z" fill="#ffffff"/>
      <path id="Path_13472" data-name="Path 13472" d="M5.122,9.471a.7.7,0,0,1-.7-.7V7.41a.7.7,0,0,1,1.4,0V8.771A.7.7,0,0,1,5.122,9.471Z" fill="#ffffff"/>
    </g>
    <rect id="Rectangle_1538" data-name="Rectangle 1538" width="16" height="16" transform="translate(2197 14984)" fill="none"/>
  </g>
</svg>
