<svg xmlns="http://www.w3.org/2000/svg" width="16" height="16" viewBox="0 0 16 16">
  <g id="Group_5408" data-name="Group 5408" transform="translate(-2171 -14983)">
    <g id="Group_5400" data-name="Group 5400" transform="translate(2170.89 14983.19)">
      <path id="Path_13465" data-name="Path 13465" d="M8,10.041a.609.609,0,0,1-.361-.093L.466,6.03a.655.655,0,0,1-.356-.6.7.7,0,0,1,.324-.593L7.682.889A.741.741,0,0,1,8.011.81a.705.705,0,0,1,.313.073l7.215,3.926a.718.718,0,0,1,.35.609.707.707,0,0,1-.324.593L8.334,9.964A.88.88,0,0,1,8,10.041ZM2.311,5.39,7.976,8.558l5.711-3.08L8,2.282Z" fill="#ffffff"/>
      <path id="Path_13466" data-name="Path 13466" d="M8,12.614a.677.677,0,0,1-.364-.111L.453,8.327A.682.682,0,0,1,.617,7.081a.669.669,0,0,1,.526.074l6.831,3.968,6.878-3.966a.643.643,0,0,1,.347-.1.7.7,0,0,1,.163.02.676.676,0,0,1,.432.327.625.625,0,0,1,.079.481.681.681,0,0,1-.323.44l-7.207,4.19A.643.643,0,0,1,8,12.614Z" fill="#ffffff"/>
      <path id="Path_13467" data-name="Path 13467" d="M8,15.19a.671.671,0,0,1-.359-.107L.453,10.9A.683.683,0,0,1,.617,9.657a.7.7,0,0,1,.176-.022.688.688,0,0,1,.349.095L7.974,13.7l6.879-3.967a.657.657,0,0,1,.354-.1.711.711,0,0,1,.178.022.654.654,0,0,1,.416.342.608.608,0,0,1,.072.467.68.68,0,0,1-.323.439L8.343,15.093A.665.665,0,0,1,8,15.19Z" fill="#ffffff"/>
    </g>
    <rect id="Rectangle_1537" data-name="Rectangle 1537" width="16" height="16" transform="translate(2171 14983)" fill="none"/>
  </g>
</svg>
