<svg xmlns="http://www.w3.org/2000/svg" width="16.058" height="16.034" viewBox="0 0 16.058 16.034"><defs><style>.a{fill:#ffffff;}</style></defs><g transform="translate(0.036 0.021)"><path class="a" d="M.964,7.38H6.337a1,1,0,0,0,1-1V1.008a1,1,0,0,0-1-1H.964a1,1,0,0,0-1,1V6.38A1,1,0,0,0,.964,7.38Zm.3-6.072H6.037V6.08H1.264Z"/><path class="a" d="M6.373,8.627H1a1,1,0,0,0-1,1V15a1,1,0,0,0,1,1H6.373a1,1,0,0,0,1-1V9.627A1,1,0,0,0,6.373,8.627Zm-.3,6.073H1.3V9.927H6.073Z"/><path class="a" d="M15.015,8.64H9.642a1,1,0,0,0-1,1v5.373a1,1,0,0,0,1,1h5.373a1,1,0,0,0,1-1V9.64A1,1,0,0,0,15.015,8.64Zm-.3,6.073H9.942V9.94h4.773Z"/><path class="a" d="M15.022-.021H9.649a1,1,0,0,0-1,1V6.352a1,1,0,0,0,1,1h5.373a1,1,0,0,0,1-1V.979A1,1,0,0,0,15.022-.021Zm-.3,6.073H9.949V1.279h4.773Z"/></g></svg>