<svg xmlns="http://www.w3.org/2000/svg" width="16" height="16" viewBox="0 0 16 16">
  <g id="Group_5668" data-name="Group 5668" transform="translate(-6289 -16307)">
    <path id="Path_13948" data-name="Path 13948" d="M14.554,11.153H13.038V9.485A1.39,1.39,0,0,0,11.648,8.1H8.7V5.627a2.837,2.837,0,1,0-1.326,0V8.1H4.451A1.391,1.391,0,0,0,3.06,9.485v1.668H1.546a1.5,1.5,0,0,0-1.5,1.494v1.91a1.5,1.5,0,0,0,1.5,1.493H5.9a1.5,1.5,0,0,0,1.5-1.493v-1.91a1.5,1.5,0,0,0-1.5-1.494H4.386V9.485a.065.065,0,0,1,.065-.066h7.2a.065.065,0,0,1,.065.066v1.668H10.2a1.5,1.5,0,0,0-1.5,1.494v1.91a1.5,1.5,0,0,0,1.5,1.493h4.357a1.5,1.5,0,0,0,1.5-1.493v-1.91A1.5,1.5,0,0,0,14.554,11.153ZM6.528,2.881A1.512,1.512,0,1,1,8.04,4.391,1.513,1.513,0,0,1,6.528,2.881Zm-.456,9.766v1.91a.169.169,0,0,1-.169.17H1.546a.17.17,0,0,1-.171-.17v-1.91a.171.171,0,0,1,.171-.171H5.9A.17.17,0,0,1,6.072,12.647Zm8.652,1.91a.17.17,0,0,1-.17.17H10.2a.17.17,0,0,1-.17-.17v-1.91a.17.17,0,0,1,.17-.171h4.357a.17.17,0,0,1,.17.171Z" transform="translate(6288.951 16306.95)" fill="#ffffff"/>
    <rect id="Rectangle_1663" data-name="Rectangle 1663" width="16" height="16" transform="translate(6289 16307)" fill="none"/>
  </g>
</svg>
