<svg xmlns="http://www.w3.org/2000/svg" width="16" height="16" viewBox="0 0 16 16">
  <g id="Group_5418" data-name="Group 5418" transform="translate(-2234 -15012)">
    <rect id="Rectangle_1540" data-name="Rectangle 1540" width="16" height="16" transform="translate(2234 15012)" fill="none"/>
    <g id="Group_5415" data-name="Group 5415" transform="translate(2233.58 15012.038)">
      <path id="Path_13493" data-name="Path 13493" d="M14.059-.038H1.941A1.52,1.52,0,0,0,.42,1.477V14.448a1.519,1.519,0,0,0,1.521,1.514H14.059a1.519,1.519,0,0,0,1.521-1.514V1.477A1.52,1.52,0,0,0,14.059-.038ZM1.782,1.8a.461.461,0,0,1,.462-.46H13.736a.461.461,0,0,1,.462.46V14.128a.461.461,0,0,1-.462.46H2.244a.461.461,0,0,1-.462-.46Z" transform="translate(0 0)" fill="#ffffff"/>
      <path id="Path_13494" data-name="Path 13494" d="M4.5,6.107a.343.343,0,0,0,.285.143.391.391,0,0,0,.282-.12L6.716,4.217A.393.393,0,0,0,6.692,3.7l-.224-.224a.364.364,0,0,0-.259-.105.36.36,0,0,0-.257.1L4.751,4.61l-.463-.464a.387.387,0,0,0-.246-.085.378.378,0,0,0-.269.109l-.226.224a.367.367,0,0,0-.023.494Z" transform="translate(0 -0.02)" fill="#ffffff"/>
      <path id="Rectangle_1545" data-name="Rectangle 1545" d="M.315,0H4.568a.314.314,0,0,1,.314.314V.9a.315.315,0,0,1-.315.315H.314A.314.314,0,0,1,0,.905V.315A.315.315,0,0,1,.315,0Z" transform="translate(7.706 4.397)" fill="#ffffff"/>
      <path id="Path_13495" data-name="Path 13495" d="M4.48,9.4a.355.355,0,0,0,.565,0L6.737,7.453a.393.393,0,0,0-.025-.516l-.223-.224a.4.4,0,0,0-.537,0L4.71,7.886l-.46-.46a.384.384,0,0,0-.27-.107.379.379,0,0,0-.269.107l-.223.223a.367.367,0,0,0-.025.495Z" transform="translate(0 -0.038)" fill="#ffffff"/>
      <path id="Rectangle_1546" data-name="Rectangle 1546" d="M.314,0H4.568a.314.314,0,0,1,.314.314V.9a.315.315,0,0,1-.315.315H.314A.314.314,0,0,1,0,.905V.314A.314.314,0,0,1,.314,0Z" transform="translate(7.706 7.656)" fill="#ffffff"/>
      <path id="Path_13496" data-name="Path 13496" d="M4.48,12.68a.354.354,0,0,0,.565,0l1.692-1.956a.39.39,0,0,0-.025-.514l-.223-.223a.393.393,0,0,0-.537,0L4.71,11.163l-.46-.46a.363.363,0,0,0-.262-.107.416.416,0,0,0-.277.107l-.223.223a.364.364,0,0,0-.025.494Z" transform="translate(0 -0.057)" fill="#ffffff"/>
      <rect id="Rectangle_1547" data-name="Rectangle 1547" width="4.883" height="1.219" rx="0.314" transform="translate(7.706 10.917)" fill="#ffffff"/>
    </g>
  </g>
</svg>
