<svg xmlns="http://www.w3.org/2000/svg" width="16" height="16" viewBox="0 0 16 16">
  <g id="Group_5410" data-name="Group 5410" transform="translate(-2218 -14984)">
    <g id="Group_5404" data-name="Group 5404" transform="translate(2217.95 14984.138)">
      <path id="Path_13481" data-name="Path 13481" d="M9.463,4.325h5.789a.7.7,0,1,0,0-1.395H9.463a.7.7,0,0,0,0,1.395Z" fill="#ffffff"/>
      <path id="Path_13482" data-name="Path 13482" d="M7.2,11.675H5.3A3.813,3.813,0,0,1,1.54,8.791,3.769,3.769,0,0,1,5.175,4.219l.333.039v.883a.252.252,0,0,0,.43.178L7.451,3.806a.25.25,0,0,0,0-.356L5.938,1.936a.252.252,0,0,0-.43.179v.76H5.379a5.268,5.268,0,0,0-5.3,4.59,5.059,5.059,0,0,0,1.3,3.934A5.114,5.114,0,0,0,5.15,13.075H7.2a.7.7,0,1,0,0-1.4Z" fill="#ffffff"/>
      <path id="Path_13483" data-name="Path 13483" d="M15.252,7.33H9.463a.7.7,0,0,0,0,1.4h5.789a.7.7,0,1,0,0-1.4Z" fill="#ffffff"/>
      <path id="Path_13484" data-name="Path 13484" d="M15.252,11.73H9.463a.7.7,0,0,0,0,1.4h5.789a.7.7,0,1,0,0-1.4Z" fill="#ffffff"/>
    </g>
    <rect id="Rectangle_1539" data-name="Rectangle 1539" width="16" height="16" transform="translate(2218 14984)" fill="none"/>
  </g>
</svg>
