<svg xmlns="http://www.w3.org/2000/svg" width="16.96" height="17" viewBox="0 0 16.96 17">
  <g id="Group_5419" data-name="Group 5419" transform="translate(-2279.5 -14983.5)">
    <rect id="Rectangle_1541" data-name="Rectangle 1541" width="16" height="16" transform="translate(2280 14984)" fill="none"/>
    <g id="Group_5417" data-name="Group 5417" transform="translate(2251.314 14984.059)">
      <path id="Union_6" data-name="Union 6" d="M5.317,16c-.214,0-.91-.078-.91-1.1,0-1.66,1.918-2.679,3.294-2.679h.384c1.4,0,3.369,1.008,3.4,2.646A1.053,1.053,0,0,1,10.469,16Zm.436-1.376,4.268.053a2.24,2.24,0,0,0-1.963-1.132H7.675A2.331,2.331,0,0,0,5.754,14.624Zm6.491-.239a.591.591,0,0,1-.609-.6.6.6,0,0,1,.636-.576H13.4a1.307,1.307,0,0,0-.872-.345h-.256a1.72,1.72,0,0,0-.624.13.625.625,0,0,1-.233.046.692.692,0,0,1-.245-.049.588.588,0,0,1-.312-.318.612.612,0,0,1,0-.461.585.585,0,0,1,.323-.323,2.853,2.853,0,0,1,1.064-.231H12.5c.97,0,2.369.656,2.369,1.843a.844.844,0,0,1-.839.889Zm-10.315,0a.846.846,0,0,1-.839-.889c0-1.187,1.4-1.843,2.369-1.843h.26a2.884,2.884,0,0,1,1.064.231.579.579,0,0,1,.327.342.618.618,0,0,1-.008.442.561.561,0,0,1-.316.318.584.584,0,0,1-.24.049.624.624,0,0,1-.233-.046,1.7,1.7,0,0,0-.621-.13h-.26a1.753,1.753,0,0,0-.872.277l1.136.067a.6.6,0,0,1,.628.576.59.59,0,0,1-.605.6ZM6.589,11.5A3.531,3.531,0,0,1,5.8,9.169a2.147,2.147,0,0,1,4.295,0A3.556,3.556,0,0,1,9.311,11.5a1.876,1.876,0,0,1-1.365.547A1.915,1.915,0,0,1,6.589,11.5ZM7.1,9.144a2.552,2.552,0,0,0,.406,1.431.653.653,0,0,0,.44.161.51.51,0,0,0,.432-.15A2.582,2.582,0,0,0,8.8,9.144a.85.85,0,1,0-1.7,0Zm4.2,1.847A2.434,2.434,0,0,1,10.755,9.3a1.642,1.642,0,0,1,3.283-.023,2.539,2.539,0,0,1-.523,1.7,1.353,1.353,0,0,1-1.117.479A1.533,1.533,0,0,1,11.3,10.99Zm.669-1.664a1.586,1.586,0,0,0,.207.866.386.386,0,0,0,.211.048.282.282,0,0,0,.184-.044,1.326,1.326,0,0,0,.263-.87A.434.434,0,0,0,12.4,8.9.412.412,0,0,0,11.966,9.326ZM2.437,10.964a2.475,2.475,0,0,1-.515-1.693A1.642,1.642,0,0,1,5.2,9.3a2.494,2.494,0,0,1-.534,1.687,1.536,1.536,0,0,1-1.109.469A1.349,1.349,0,0,1,2.437,10.964Zm.692-1.638a1.281,1.281,0,0,0,.226.832.3.3,0,0,0,.226.1.316.316,0,0,0,.229-.089,1.567,1.567,0,0,0,.184-.84A.412.412,0,0,0,3.561,8.9.434.434,0,0,0,3.129,9.326ZM14.591,7.951a6.609,6.609,0,0,0-13.218,0A.686.686,0,0,1,0,7.951a7.98,7.98,0,0,1,15.96,0,.684.684,0,1,1-1.369,0Z" transform="translate(28.686 -0.059)" fill="#ffffff" stroke="rgba(0,0,0,0)" stroke-miterlimit="10" stroke-width="1"/>
    </g>
  </g>
</svg>
