<svg xmlns="http://www.w3.org/2000/svg" width="789.702" height="354.25" viewBox="0 0 789.702 354.25"><defs><style>.a{fill:#51beff;}.b{fill:#2b7ef9;}.c{opacity:0.09;}.d{fill:#dce4ed;}.e{fill:#c4cfe0;}.f{fill:#fff;}.g,.h,.j,.w{fill:none;stroke-miterlimit:10;}.g{stroke:#2b7ef9;}.g,.h,.j{stroke-width:1.5px;}.h{stroke:#c4cfe0;}.i{fill:#97ffb6;}.j{stroke:#fff;}.k{fill:#414551;}.l{fill:#456ce2;}.m{fill:#7f8af6;}.n{fill:#4b57bd;}.o{fill:#ff9569;}.p{fill:#41424c;}.q{fill:#3dd0c0;}.r{fill:#2fada9;}.s{fill:#1767d1;}.t{fill:#2680eb;}.u{fill:#cee9ff;}.v{fill:#373449;}.w{stroke:#373449;stroke-linecap:round;stroke-width:2px;}.x{fill:#292929;}.y{fill:#404040;}.z{fill:#ff8469;}.aa{fill:#f2bc0a;}.ab{fill:#dca900;}.ac{fill:#1a1a1a;}.ad{fill:#005ca6;}.ae{fill:#feb755;}.af{fill:#fc9722;}.ag{fill:#ffd9a4;}.ah{fill:#ff7070;}.ai{fill:#146cb2;}.aj{fill:#08508a;}.ak{fill:#fe5454;}.al{fill:#b7bcd1;}.am{fill:#bce1f4;}.an{fill:#8d92aa;}.ao{fill:#41454f;}.ap{fill:#e97332;}.aq{fill:#9ab5b0;}.ar{fill:#414550;}.as{fill:#c8cde2;}.at{fill:#34486e;}.au{fill:#6c7594;}.av{fill:#75bae4;}.aw{fill:#def1fd;}.ax{fill:#f89664;}.ay{fill:#8b88b6;}.az{fill:#97c2e3;}.ba{fill:#f99763;}.bb{fill:#8076fb;}.bc{fill:#e3e3ef;}.bd{fill:#bde1f4;}.be{fill:#75bae3;}.bf{fill:#f59966;}.bg{fill:#b2b1d1;}.bh{fill:#45517d;}.bi{fill:#aca7fa;}.bj{fill:#dac5be;}.bk{fill:#a9a6fb;}.bl{opacity:0.62;}</style></defs><g transform="translate(-564 -390.417)"><rect class="a" width="37" height="75" transform="translate(1243 634)"/><rect class="b" width="36" height="146" transform="translate(1296 587)"/><rect class="a" width="37" height="67" transform="translate(1189 648)"/><ellipse class="c" cx="351.851" cy="8.333" rx="351.851" ry="8.333" transform="translate(650 728)"/><ellipse class="c" cx="35.851" cy="5.833" rx="35.851" ry="5.833" transform="translate(564 730)"/><rect class="d" width="90.667" height="32.833" rx="4" transform="translate(948.568 595)"/><g transform="translate(551 -35.667)"><rect class="e" width="90.667" height="32.833" rx="4" transform="translate(397.568 589.935)"/><circle class="f" cx="6.75" cy="6.75" r="6.75" transform="translate(405.402 599.602)"/><rect class="f" width="55.5" height="3.333" rx="1.667" transform="translate(424.902 600.352)"/><rect class="f" width="40.417" height="3.333" rx="1.667" transform="translate(424.902 609.018)"/></g><g transform="translate(551 15.333)"><rect class="e" width="90.667" height="32.833" rx="4" transform="translate(397.568 498.822)"/><circle class="f" cx="6.75" cy="6.75" r="6.75" transform="translate(405.402 508.489)"/><rect class="f" width="55.5" height="3.333" rx="1.667" transform="translate(424.902 509.239)"/><rect class="f" width="40.417" height="3.333" rx="1.667" transform="translate(424.902 517.905)"/></g><g transform="translate(547 30.333)"><rect class="b" width="112.942" height="40.9" rx="4" transform="translate(421.289 550)"/><g transform="translate(431.047 562.042)"><circle class="f" cx="8.408" cy="8.408" r="8.408"/><g transform="translate(24.291 0.934)"><rect class="f" width="69.135" height="4.152" rx="1.667"/><rect class="f" width="50.346" height="4.152" rx="1.667" transform="translate(0 10.796)"/></g></g></g><path class="g" d="M497.333,525.234V457.072a13.928,13.928,0,0,1,13.928-13.928h59.312" transform="translate(551 58.333)"/><path class="h" d="M287.888,562.083h-48.6A10.791,10.791,0,0,1,228.5,551.292V516.046" transform="translate(551 15.333)"/><g transform="translate(28.145 25.145)"><rect class="b" width="46.666" height="46.666" rx="5" transform="translate(1060.202 453)"/><path class="f" d="M590.423,447.393a6.939,6.939,0,1,0-6.177,0,12.443,12.443,0,0,0-9.35,12.05h24.877A12.443,12.443,0,0,0,590.423,447.393Z" transform="translate(496.201 29.488)"/></g><path class="i" d="M348.43,715.726H211l22-8s-15-35,3.5-34.5a15.093,15.093,0,0,1,9.5,3s.75-29.5,16-29.75,24.32,26.75,24.32,26.75,11.746-12.372,25.627-10.39c9.915,1.322,13.212,14.393,17.161,18.992.132.154,16.016-7.2,20.847,1.271s-1.525,32.627-1.525,32.627" transform="translate(439 20.333)"/><path class="i" d="M348.43,715.726H211l22-8s-15-35,3.5-34.5a15.093,15.093,0,0,1,9.5,3s.75-29.5,16-29.75,24.32,26.75,24.32,26.75,11.746-12.372,25.627-10.39c9.915,1.322,13.212,14.393,17.161,18.992.132.154,16.016-7.2,20.847,1.271s-1.525,32.627-1.525,32.627" transform="translate(532 20.333)"/><g transform="translate(551 9.51)"><rect class="e" width="90.667" height="32.833" rx="4" transform="translate(287.888 544.49)"/><circle class="f" cx="6.75" cy="6.75" r="6.75" transform="translate(295.721 554.157)"/><rect class="f" width="55.5" height="3.333" rx="1.667" transform="translate(315.221 554.907)"/><rect class="f" width="40.417" height="3.333" rx="1.667" transform="translate(315.221 563.574)"/></g><g transform="translate(26 -11.155)"><g transform="translate(525 26.333)"><rect class="e" width="90.667" height="32.833" rx="4" transform="translate(287.888 498.822)"/><circle class="b" cx="6.75" cy="6.75" r="6.75" transform="translate(295.721 508.489)"/><rect class="f" width="55.5" height="3.333" rx="1.667" transform="translate(315.221 509.239)"/><rect class="f" width="40.417" height="3.333" rx="1.667" transform="translate(315.221 517.905)"/></g><path class="j" d="M299.129,514.917l2.037,2.458,4.647-4.273" transform="translate(525 26.333)"/></g><g transform="translate(26 -21.492)"><g transform="translate(525 26.333)"><rect class="e" width="90.667" height="32.833" rx="4" transform="translate(287.888 590.159)"/><circle class="b" cx="6.75" cy="6.75" r="6.75" transform="translate(295.721 599.825)"/><rect class="f" width="55.5" height="3.333" rx="1.667" transform="translate(315.221 600.575)"/><rect class="f" width="40.417" height="3.333" rx="1.667" transform="translate(315.221 609.242)"/></g><path class="j" d="M299.129,606.254l2.037,2.458,4.647-4.273" transform="translate(525 26.333)"/></g><g transform="translate(26 -27.161)"><g transform="translate(525 26.333)"><rect class="e" width="90.667" height="32.833" rx="4" transform="translate(287.888 635.827)"/><circle class="b" cx="6.75" cy="6.75" r="6.75" transform="translate(295.721 645.494)"/><rect class="f" width="55.5" height="3.333" rx="1.667" transform="translate(315.221 646.244)"/><rect class="f" width="40.417" height="3.333" rx="1.667" transform="translate(315.221 654.911)"/></g><path class="j" d="M299.129,652.014l2.037,2.458,4.647-4.273" transform="translate(525 26.333)"/></g><g transform="translate(542 26.047)"><path class="k" d="M453.183,725.331c-.535.214.606,5.469.734,5.951.386,1.445.932,3.151,2.449,3.743,2.161.842,4.565.254,6.8.251s4.449,0,6.674.039c0,0,6.1,0-5.929-4.182a4.41,4.41,0,0,1-2.882-3.342l-.989-5.2Z" transform="translate(-11.487 -20.605)"/><path class="k" d="M388.6,717.57s-11.761,10-5.488,10.977a34.736,34.736,0,0,0,14.9,4.508s1.764-.829-5.292-5.315,3.724-5.073,3.724-5.073Z" transform="translate(-1.399 -19.9)"/><path class="l" d="M423.39,649.635,422.4,660.02l-.941,9.826-.406,4.222-1.188,12.4c-.958,6.5-7.774,13.93-13.789,19.352a111.11,111.11,0,0,1-9.538,7.7l-7.645-5.686,13.925-15.112a15.055,15.055,0,0,0,3.44-6.145c2.693-9.591,2.181-21.135,1.3-29.026-.594-5.38-1.365-9.067-1.411-9.291,1.722,1.976,11.254,1.711,15.365,1.5C422.661,649.687,423.39,649.635,423.39,649.635Z" transform="translate(-2.47 -10.157)"/><path class="m" d="M423.286,678.289l-1.188,12.4c-.958,6.5-7.774,13.93-13.789,19.352-.676.335-1.382.67-2.112.988,0,0-5.951-2.693,6.693-13.078a11.841,11.841,0,0,0,3.916-6.121C417.982,687.374,420.264,680.289,423.286,678.289Z" transform="translate(-4.706 -14.379)"/><path class="n" d="M425.218,660.02l-.6,6.249-14.707-12.406c-.594-5.38-.9-5.386-.948-5.61,1.722,1.976,11.254,1.711,15.365,1.5Z" transform="translate(-5.292 -10.157)"/><path class="l" d="M456.589,712.923s-2.158,4.31-9.02,2.74l-.388-2.352c-6.274-31.948-29.014-63.678-29.014-63.678a85.938,85.938,0,0,0,10.679.158,30.431,30.431,0,0,0,7.762-1.252c.271-.095.523-.194.77-.3,0,0,.041.058.112.176,1.47,2.253,16.56,26.174,18.929,61.492C456.484,710.9,456.543,711.906,456.589,712.923Z" transform="translate(-6.585 -10.155)"/><path class="m" d="M458.15,709.936c-.952.594-7.942-7.178-14.8-33.052-6.638-25.036-11.906-25.582-12.77-27.064-.064-.106-.094-.158-.094-.158l7.856-1.094.882-.124C440.691,650.7,455.781,674.618,458.15,709.936Z" transform="translate(-8.316 -10.184)"/><path class="o" d="M427.112,605l1.37,4.316-10.855,2.035s3.4-5.164,2.622-6.351c-.241-.37-.412-.629-.529-.805l-.253-.382s-7.451-14.3,7.645-10.573a.344.344,0,0,1,.029.035C427.635,593.826,434.092,601.235,427.112,605Z" transform="translate(-6.509 -2.339)"/><path class="p" d="M427,598.03h-2.646c-3.528,1.541.364,4.075.364,4.075l-.541,1.329c-3.329-.8-3.917.988-3.917.988l-.541-.223-.254-.382s-7.451-14.3,7.645-10.573a.35.35,0,0,1,.029.035L427,593.4C424.866,593.767,427,598.03,427,598.03Z" transform="translate(-6.509 -2.339)"/><path class="o" d="M383.757,642.512c.063.363-5.666-.28-6.22-.432-2.12-.584-3.982-1.2-5.32-2.978-.664-.884-1.921-4.608.642-3.9.654.181,1.153,1.344,1.681,1.8.321.275,1.134.6,1.344.944,0,0-1.47-2.425.641-1.323a23.346,23.346,0,0,0,4.21,1.666Z" transform="translate(0 -8.31)"/><path class="q" d="M407.418,617.354l-.717,13.554s1.375,3.14-5.881,6.468c-3.657,1.682-8.42,2.317-12.237,2.534a58.714,58.714,0,0,1-6.58.018c-3.722-2.352,0-5.1,0-5.1l15.683-4.31c4.51-12.743,10-18.229,10-18.229Z" transform="translate(-1.269 -5.103)"/><path class="r" d="M408.048,631.736s1.375,3.14-5.881,6.468c-3.657,1.682-8.42,2.317-12.237,2.534v-.006c1.923-4.2,4.469-.435,11.161-3.963s4.411-6.234,5.193-11.379,2.481-7.209,2.481-7.209Z" transform="translate(-2.616 -5.931)"/><path class="q" d="M433.07,618.612c4.9,28.03,3.216,24.124,3.216,24.124-20.794,5.341-27.326.574-27.326.574l2.744-31.558s2.156-2.94,19.209-2.744Z" transform="translate(-5.291 -4.64)"/><path class="r" d="M436.413,620.7l2.9,16.384c-2.351-.392-3.736-5.892-3.736-5.892-6.468-5.1-2.352-10.781-2.352-10.781Z" transform="translate(-8.52 -6.244)"/><path class="o" d="M462.9,585.21a5.076,5.076,0,0,0,.316-3.281c-.152-.414-.606-.938-.6-1.389s-.1-.582.633-.411a3.342,3.342,0,0,1,1.376,1.222c.725-.9,1.262-1.55,1.928-2.492.473-.669,1.03-1.3,1.593-2.034.276-.359,1.422-1.5,1.422-.322a6.1,6.1,0,0,1-1.777,3.227c.475-.211,1.611-.29,1.654.231a2.452,2.452,0,0,1-.859,1.638c.207-.217.645-.062.871.039a.677.677,0,0,1,.474.866,6.293,6.293,0,0,1-1.379,2.3c-.3.358-.616.7-.938,1.042a8.276,8.276,0,0,1-.89.935Z" transform="translate(-12.832 0)"/><path class="q" d="M463.363,586.917a22.747,22.747,0,0,1-.37,2.582.206.206,0,0,0-.006.029,83.539,83.539,0,0,1-5,14.765,13.154,13.154,0,0,1-6.41,6.733c-1.105.523-2.229,1-3.352,1.429a70.17,70.17,0,0,1-15.436,3.863l-2.158-10.59c5.7.276,13.9-1.711,17.947-2.817a5.3,5.3,0,0,0,3.44-2.969l6.251-14.2A7.943,7.943,0,0,1,463.363,586.917Z" transform="translate(-8.336 -1.368)"/><path class="r" d="M466.227,587.132c-.018.142-.153,1.1-.364,2.565a.2.2,0,0,0-.006.029,83.536,83.536,0,0,1-5,14.765,13.154,13.154,0,0,1-6.41,6.733c-1.105.523-2.229,1-3.352,1.429-.182-1.229.035-3.234,2.547-5C457.535,604.9,465.927,587.744,466.227,587.132Z" transform="translate(-11.206 -1.567)"/></g><g transform="translate(-9449 -5792.898)"><rect class="s" width="14" height="16" transform="translate(10217 6387.898)"/><rect class="s" width="14.49" height="9.66" rx="3" transform="translate(10169.104 6417.773) rotate(-43)"/><rect class="t" width="34" height="12" rx="2" transform="translate(10207 6384.898)"/><g transform="translate(10159 6400.456)"><circle class="t" cx="64.5" cy="64.5" r="64.5" transform="translate(0 0.442)"/><ellipse class="u" cx="58.665" cy="58.665" rx="58.665" ry="58.665" transform="translate(5.707 6.43)"/><ellipse class="f" cx="59.278" cy="59.278" rx="59.278" ry="59.278" transform="translate(5.095 5.818)"/><g transform="translate(13.996 14.719)"><g transform="translate(48.865 0)"><rect class="v" width="2.843" height="9.595" rx="1.422"/><rect class="v" width="2.843" height="9.595" rx="1.422" transform="translate(0.178 91.156)"/></g><g transform="translate(0 48.865)"><rect class="v" width="2.843" height="9.595" rx="1.422" transform="translate(100.752 0) rotate(90)"/><rect class="v" width="2.843" height="9.595" rx="1.422" transform="translate(9.595 0.178) rotate(90)"/></g><g transform="translate(14.83 14.747)"><path class="v" d="M1.421,0h0A1.422,1.422,0,0,1,2.843,1.422V4.861A1.421,1.421,0,0,1,1.422,6.282h0A1.422,1.422,0,0,1,0,4.86V1.421A1.421,1.421,0,0,1,1.421,0Z" transform="matrix(0.707, 0.707, -0.707, 0.707, 69.04, 0)"/><path class="v" d="M1.421,0h0A1.422,1.422,0,0,1,2.843,1.422V5.674A1.422,1.422,0,0,1,1.422,7.1h0A1.422,1.422,0,0,1,0,5.674V1.421A1.421,1.421,0,0,1,1.421,0Z" transform="matrix(0.707, 0.707, -0.707, 0.707, 5.019, 64.273)"/></g><g transform="translate(14.705 14.872)"><path class="v" d="M1.421,0h0A1.422,1.422,0,0,1,2.843,1.422V4.861A1.421,1.421,0,0,1,1.422,6.282h0A1.422,1.422,0,0,1,0,4.861V1.421A1.421,1.421,0,0,1,1.421,0Z" transform="matrix(-0.707, 0.707, -0.707, -0.707, 71.3, 69.04)"/><path class="v" d="M1.421,0h0A1.422,1.422,0,0,1,2.843,1.422V5.674A1.422,1.422,0,0,1,1.422,7.1h0A1.422,1.422,0,0,1,0,5.674V1.421A1.421,1.421,0,0,1,1.421,0Z" transform="matrix(-0.707, 0.707, -0.707, -0.707, 7.027, 5.019)"/></g></g><g transform="translate(62.783 29.809)"><rect class="t" width="3.139" height="36.102" rx="1.57" transform="translate(0 0)"/><rect class="t" width="3.139" height="25.899" rx="1.57" transform="translate(25.899 35.709) rotate(90)"/></g><line class="w" x1="23.545" y2="21.19" transform="translate(64.549 43.739)"/><ellipse class="s" cx="5.69" cy="5.69" rx="5.69" ry="5.69" transform="translate(58.682 59.406)"/></g></g><g transform="matrix(1, -0.017, 0.017, 1, 800.305, -287.28)"><path class="k" d="M445.037,924.333s-8.1,14.767-1.324,13.325a37.886,37.886,0,0,0,16.939-1.2s1.476-1.531-7.463-3.359-.836-7.257-.836-7.257Z" transform="translate(-2.643 -8.355)"/><g transform="translate(382.5 849.253)"><path class="k" d="M389.044,931.964c-.594-.207-4.4,5.714-4.4,5.714s-2.616,3.356-1.793,4.93c1.172,2.243,3.571,3.484,5.414,5.086s.984.642,2.789,2.267c0,0,7.711,6.011.822-6.053a3.271,3.271,0,0,1,0-3.9l2.116-4.911Z" transform="translate(-381.5 -858.107)"/><path class="x" d="M395.661,931.71s-4.866,2-9.383-4.216l1.368-2.213C405.4,894.512,410.377,851.8,410.377,851.8a41.776,41.776,0,0,0,7.752,8.1,33.274,33.274,0,0,0,7.281,4.538c.29.116.57.216.849.306,0,0-.008.078-.035.225-.406,2.906-5.157,33.4-28.54,64.137Q396.695,930.4,395.661,931.71Z" transform="translate(-382.735 -852.112)"/><path class="y" d="M398.406,929.611c-1.209-.2-1.382-11.6,11.535-37.794,12.5-25.346,8.559-29.574,8.91-31.412.023-.133.037-.2.037-.2l7.244,4.736.814.531C426.54,868.38,421.79,898.872,398.406,929.611Z" transform="translate(-383.458 -852.616)"/></g><path class="z" d="M428.286,824.132l1.495,4.709-11.844,2.221s3.714-5.634,2.861-6.93c-.263-.4-.449-.686-.577-.879l-.277-.417s-8.129-15.6,8.341-11.536a.379.379,0,0,1,.032.038C428.857,811.935,435.9,820.019,428.286,824.132Z" transform="translate(-2.206 -0.276)"/><path class="z" d="M400.136,862.64l-4.7-3.162c-.4-.056.484,6.172.668,6.771.7,2.295,1.433,4.305,3.416,5.708.986.7,5.087,1.951,4.234-.822-.218-.708-1.5-1.214-2.014-1.777a4.5,4.5,0,0,1-.344-.44,4.992,4.992,0,0,1-.854-2.345Z" transform="translate(-0.799 -3.318)"/><path class="aa" d="M417.191,832.616a3.319,3.319,0,0,1-1.974,4.545c-.41.137-.862.3-1.36.487a89,89,0,0,0-8.713,3.984,3.335,3.335,0,0,0-1.773,2.426l-1.725,10.589-.734,4.535a3.246,3.246,0,0,1-.685,1.547c-.708.864-2.026,1.98-3.65,1.078a3.131,3.131,0,0,1-1.5-2.21c-.222-1.235-.57-3.409-.8-6.008-.363-4.154-.419-9.4.829-13.611a18.229,18.229,0,0,1,1.966-4.756c1.347-2.089,3.9-2.809,6.162-3.448,1.994-.563,4.036-.925,6.042-1.469,1.063-.294,2.107-.672,3.163-1.008a3.323,3.323,0,0,1,4.026,1.764Z" transform="translate(-0.719 -1.429)"/><path class="z" d="M473.779,815.253a5.166,5.166,0,0,0,2.211-2.52c.121-.432.057-1.135.328-1.5s.261-.541.767.038a3.4,3.4,0,0,1,.41,1.825c1.133-.309,1.962-.528,3.072-.911.787-.271,1.621-.459,2.523-.731.441-.133,2.061-.389,1.364.579a6.2,6.2,0,0,1-3.384,1.607c.518.108,1.5.718,1.228,1.174a2.491,2.491,0,0,1-1.683.84c.3-.055.569.333.7.55a.734.734,0,0,1-.124,1c-.7.782-5.532,1.064-5.57,1Z" transform="translate(-5.683 -0.293)"/><path class="aa" d="M471.735,814.793l-12.669,4.17a16.119,16.119,0,0,0-3.244,1.438,27.924,27.924,0,0,1-4.468,1.87c-4.01,1.381-12.15,3.926-17.923,4.023l2.874,10.544a70.937,70.937,0,0,0,15.321-4.914c1.1-.507,2.207-1.062,3.288-1.663a60.587,60.587,0,0,0,6.885-4.874c4.641-3.394,6.288-5.726,12.192-6.9C473.99,818.482,473.527,815.564,471.735,814.793Z" transform="translate(-3.171 -0.536)"/><path class="ab" d="M414.314,837.758a89.41,89.41,0,0,0-8.791,4.025,3.162,3.162,0,0,0-1.68,2.3l-1.74,10.674a46.675,46.675,0,0,1-.682-10.251c.049-2.152.444-4.005,2.408-5.2a8.854,8.854,0,0,1,3.181-.951,3.53,3.53,0,0,0,1.893-.92,13.041,13.041,0,0,0,2.039-2.9c.463-.82.888-1.661,1.286-2.514.094-.2.552-.887.5-1.118Z" transform="translate(-1.176 -1.539)"/><path class="p" d="M432.783,810.9a2.493,2.493,0,0,0-.139-.3c0,.016,0,.033.006.05a2.632,2.632,0,0,0-3.843-1.049,2.534,2.534,0,0,0-1.073-2.735,4.646,4.646,0,0,0-3.016-.66,6.02,6.02,0,0,0-3.358,1.238,3.962,3.962,0,0,0-1.516,3.158,4.334,4.334,0,0,0-5.673,4.43,3.433,3.433,0,0,0,.383,1.387c.007.014.018.026.026.041l0,.006a5.657,5.657,0,0,0,2.779,2.121,7.484,7.484,0,0,0,.027,3.308,3.063,3.063,0,0,0,.375.777,2.368,2.368,0,0,0,2.1,1.207,2.838,2.838,0,0,0,2.16-1.836,3.877,3.877,0,0,0-.126-3.256,2.045,2.045,0,0,0,1.826-.389,2.735,2.735,0,0,0,.941-1.651.5.5,0,0,1,.159-.348.476.476,0,0,1,.37-.009,7.2,7.2,0,0,0,5.763-1.111,5.027,5.027,0,0,0,1.675-1.9A3.187,3.187,0,0,0,432.783,810.9Z" transform="translate(-1.971 0)"/><path class="ac" d="M408.735,870.158l15.534,9.693,4.848-16.673-15.473-2.97-3.7,3.868Z" transform="translate(-1.605 -3.363)"/><path class="x" d="M459.9,903.122q-2.265,5.05-4.482,10.109-2.743,6.259-5.439,12.547l-8.346-2.907c-.075-.028.1-.76.122-.816.581-3.123,1.416-6.217,2.147-9.312.553-2.279.731-4.492,1.5-6.742.731-2.11,1.538-4.323,1.163-6.583-.366-2.241-1.829-3.46-3.282-5.026-1.585-1.707-3.179-3.4-4.736-5.13-3.113-3.46-6.18-6.977-9.331-10.4q-4.543-4.937-9.105-9.846l14.132-1.988,5.523-.778,1.716,2.138q5.88,7.314,11.769,14.619c2.307,2.86,5.054,5.42,6.827,8.674C462.177,895.517,461.643,899.24,459.9,903.122Z" transform="translate(-2.341 -3.739)"/><path class="y" d="M460.753,903.122q-2.265,5.05-4.482,10.109c1.5-5.814,3.057-13.222,2.26-16.579-1.407-5.945-24.7-28.489-24.7-28.489l1.266-1.135,5.523-.778,1.716,2.138q5.88,7.314,11.769,14.619c2.307,2.86,5.054,5.42,6.827,8.674C463.031,895.517,462.5,899.24,460.753,903.122Z" transform="translate(-3.196 -3.739)"/><path class="aa" d="M435.577,837.488c5.346,30.584,3.509,26.322,3.509,26.322-22.689,5.828-29.816.626-29.816.626L412.264,830s2.353-3.208,20.96-2.994Z" transform="translate(-1.667 -1.296)"/><path class="ab" d="M437,838.184l3.06,18.492c-2.557-.483-3.937-6.516-3.937-6.516-6.936-5.712-2.7-11.377-2.7-11.377Z" transform="translate(-3.091 -1.992)"/></g><g transform="translate(572.445 539.547)"><path class="k" d="M124.508,1078.809s-8.5,12.577-2.3,11.849a34.149,34.149,0,0,0,15.3.334s1.452-1.252-6.418-3.636.238-7.527.238-7.527Z" transform="translate(-112.46 -893.637)"/><path class="k" d="M150.293,1081.351s-6.818,13.563-.762,12.046a34.157,34.157,0,0,0,15.22-1.63s1.28-1.428-6.831-2.784-.729-7.495-.729-7.495Z" transform="translate(-116.65 -894.03)"/><path class="ad" d="M138.29,1027.86a140.721,140.721,0,0,1-5,35.745q-.723,2.675-1.6,5.4c-.3.93-.609,1.868-.938,2.815,0,0-3.525,3.17-9.239-.744l.49-2.291c5.8-31.494.085-61.271.085-61.271s1.031-5.131,6.069-3.457a30.181,30.181,0,0,0,7.557,1.648c.279.017.549.017.811.008,0,0,.017.068.042.2A109.967,109.967,0,0,1,138.29,1027.86Z" transform="translate(-112.704 -882.017)"/><g transform="translate(0 0)"><ellipse class="ae" cx="30.318" cy="30.311" rx="30.318" ry="30.311" transform="matrix(-0.13, -0.992, 0.992, -0.13, 7.861, 67.983)"/><ellipse class="af" cx="23.043" cy="23.037" rx="23.043" ry="23.037" transform="translate(13.768 59.544) rotate(-96.642)"/><g transform="translate(23.595 20.03)"><path class="ag" d="M140.08,894.227a4.7,4.7,0,0,1,.663-.938,10.247,10.247,0,0,1,1.112-1.081,11.144,11.144,0,0,1,1.472-1.043,9.834,9.834,0,0,1,1.744-.822l1.884,6.707-.579.3a29.626,29.626,0,0,0-2.894,1.827,9.342,9.342,0,0,0-2.026,1.932,5.348,5.348,0,0,0-.991,2.254,6.16,6.16,0,0,0,.207,2.791,6.678,6.678,0,0,0,1.439,2.759,5.935,5.935,0,0,0,2.27,1.547,7.911,7.911,0,0,0,2.868.505,12.834,12.834,0,0,0,3.216-.432l.956,3.4,1.684-.473L152.13,910a16.934,16.934,0,0,0,4.178-2.171,14.5,14.5,0,0,0,3.258-3.205l-2.526-2.646a5.973,5.973,0,0,1-.8,1.134,12.385,12.385,0,0,1-1.341,1.32,15.18,15.18,0,0,1-1.783,1.305,13.2,13.2,0,0,1-2.123,1.086l-1.884-6.706q.176-.119.373-.227t.373-.227a28.345,28.345,0,0,0,2.728-1.8,7.771,7.771,0,0,0,1.781-1.811,4.949,4.949,0,0,0,.811-2.028,5.758,5.758,0,0,0-.214-2.44,7.1,7.1,0,0,0-1.342-2.663,6.408,6.408,0,0,0-2.151-1.685,7.7,7.7,0,0,0-2.74-.734,11.385,11.385,0,0,0-3.142.2l-.92-3.272-1.684.473.919,3.272a12.948,12.948,0,0,0-3.65,1.935,14.606,14.606,0,0,0-2.66,2.6Zm10.927-2.161a2.432,2.432,0,0,1-.382,2.309,9.573,9.573,0,0,1-2.563,2.013l-1.793-6.382a4.882,4.882,0,0,1,3.175.1A2.916,2.916,0,0,1,151.007,892.066Zm-6.339,13.387a2.492,2.492,0,0,1,.528-2.473,12.669,12.669,0,0,1,2.805-2.2l1.8,6.415a6.137,6.137,0,0,1-3.409.119A2.54,2.54,0,0,1,144.667,905.453Z" transform="translate(-137.591 -883.43)"/></g></g><path class="o" d="M129.823,933.314l.035-2.591s-5.878-3.414-4.4-3.566a16.226,16.226,0,0,1,5.048.89c.254.079-.134-.57-.194-.8-.119-.451.32-.586.818-.251a8.142,8.142,0,0,1,1.954,2.1,9.069,9.069,0,0,0-.33,3.935Z" transform="translate(-113.276 -870.114)"/><path class="o" d="M158.175,938.472l.537-2.536s6.485-2.036,5.081-2.509a16.194,16.194,0,0,0-5.12-.243c-.265.022.255-.527.363-.735.216-.413-.183-.642-.742-.424a8.131,8.131,0,0,0-2.369,1.622,9.074,9.074,0,0,1-.546,3.911Z" transform="translate(-117.944 -870.908)"/><path class="ah" d="M153.1,938.39l-3.454,10.134A12.884,12.884,0,0,0,149,951.3a22.433,22.433,0,0,1-.963,3.767c-1.054,3.237-3.359,9.684-6.089,13.43l7.033,5.283a68.841,68.841,0,0,0,5.372-14.219c.21-.953.387-1.928.525-2.911a48.693,48.693,0,0,0,.206-6.769c.069-4.614-.629-6.8,1.471-11.15C156.553,938.73,154.459,937.615,153.1,938.39Z" transform="translate(-115.865 -871.863)"/><path class="ai" d="M140.022,1032.28a140.72,140.72,0,0,1-5,35.745,15.132,15.132,0,0,1-.8-2.274c-2.012-7.083-2.012-12.9,0-15.536s4.226-7.185,4.226-11.149C138.45,1035.8,138.518,1032.3,140.022,1032.28Z" transform="translate(-114.436 -886.436)"/><path class="ah" d="M132.746,933.043l.01,10.707a12.918,12.918,0,0,1-.279,2.834,22.323,22.323,0,0,0-.3,3.877c-.045,3.4.064,10.249,1.444,14.675l-7.777,3.522s-1.866-9.241-1.094-15.975c.108-.969.254-1.949.44-2.925a48.687,48.687,0,0,1,1.982-6.475c1.419-4.392,2.783-6.234,2.194-11.03C129.366,932.253,131.707,931.871,132.746,933.043Z" transform="translate(-113.175 -870.947)"/><path class="o" d="M140.192,964.089l1.347,4.245-10.676,2s3.349-5.078,2.58-6.246c-.238-.364-.4-.619-.521-.792l-.248-.376s-7.327-14.059,7.518-10.4c0,0,.011.012.029.035C140.706,953.095,147.056,960.382,140.192,964.089Z" transform="translate(-114.15 -873.999)"/><path class="aj" d="M123.187,1014.1l15.184,15.328V1003.72H124.038l-1.841,3.795Z" transform="translate(-112.809 -882.016)"/><path class="ad" d="M154.234,1072.549s-2.633,1.532-8.981-1.232a10.142,10.142,0,0,1,.459-2.072,13.741,13.741,0,0,0,.314-3.52c-.064-1.879-.148-3.754-.293-5.629-.292-3.753-.764-7.49-1.374-11.2a179.646,179.646,0,0,0-4.831-20.962q-2.452-8.434-5.569-16.656c-1.208-3.2-2.48-6.371-3.862-9.5-.174-.394-.349-.788-.531-1.178a84.39,84.39,0,0,0,10.293,2.091,29.958,29.958,0,0,0,7.73.2c.279-.042.541-.093.8-.15,0,0,.03.064.076.191,1.013,2.444,11.256,28.3,7.137,62.872C155.484,1066.773,154.373,1071.558,154.234,1072.549Z" transform="translate(-113.949 -881.533)"/><path class="ai" d="M157.474,1066.153c-1.029.4-6.374-8.38-8.31-34.634-1.873-25.4-6.866-26.887-7.432-28.477-.043-.114-.063-.17-.063-.17l7.792.369.875.041C151.35,1005.725,161.593,1031.585,157.474,1066.153Z" transform="translate(-115.822 -881.885)"/><path class="ah" d="M145.908,977.742c4.82,27.567,3.164,23.725,3.164,23.725-20.452,5.253-26.875.565-26.875.565L124.9,971s2.12-2.892,18.891-2.7Z" transform="translate(-112.809 -876.533)"/><path class="ak" d="M149.9,979.985l2.526,16.2c-2.313-.385-3.347-5.882-3.347-5.882-6.362-5.012-2.313-10.6-2.313-10.6Z" transform="translate(-116.691 -878.299)"/><path class="p" d="M138.1,952.493s3.584,2.739.038,6.437c-2.023,2.109,3.272,3.98,2.009,5.917-.476.729-2.694,4.075-2.4,5.445,1.356,6.376,5,5.861.394,9.136s-2.067-.106-7.561,2.747-6.551-6.128-8.664-3.064-2.43-4.543,0-6.656,5.177-4.121,5.388-7.607.395-4.966.673-7.185S127.765,949.648,138.1,952.493Z" transform="translate(-112.056 -873.969)"/></g><g transform="translate(551 15.333)"><rect class="e" width="30.003" height="30.003" rx="5" transform="translate(213.545 487.372)"/><path class="f" d="M230.826,502.777a5.121,5.121,0,1,0-4.558,0,9.184,9.184,0,0,0-6.9,8.895h18.361A9.183,9.183,0,0,0,230.826,502.777Z"/></g><path class="i" d="M102.249,312.54q21.591-22.218,45.248-42.9c5.824-5.091,12.248-10.349,20.441-11.721,6.061-1.015,13.636,1.217,14.951,6.352,1.369,5.347-4.462,9.844-7.088,14.84a3.445,3.445,0,0,0-.524,1.909c.283,2.665,4.936,2.614,7.823,1.554,14.851-5.455,26.366-15.728,39.369-23.913s29.65-14.543,45.076-10.4c3.281.88,6.64,2.436,7.947,5.143,1.485,3.077-.158,6.6-2.317,9.374s-4.9,5.339-5.925,8.55a3.4,3.4,0,0,0-.182,1.706c.585,2.842,5.462,2.54,8.687,1.646a96.781,96.781,0,0,1,30.056-3.369c3.826.172,7.748.6,11.106,2.168a14.864,14.864,0,0,1,7.736,18.136c-2.256,6.677-6.893,19.468-14.876,20.929" transform="translate(1016.751 424.542)"/><g transform="translate(546 18.65)"><path class="al" d="M646.111,698.238c-.005,1.6-.032,3.225-.12,4.859-.286,5.285-1.25,10.512-4.241,14.239-4.745,5.908-13.336,7.731-20.439,8.911-10.165,1.682-20.542,1.287-30.832,1.163q-2.191-.033-4.365-.033c-7.623.006-15.413.33-22.733-2.185-5.113-1.759-9.143-4.712-10.128-10.355a14.608,14.608,0,0,1,2.083-9.89,5.436,5.436,0,0,0,.839-2.25c2.034-1.331,4.469-1.482,6.675-2.294,1.688-.205,3.322-.752,5.032-.8,4.372-.573,8.3-2.477,12.352-4.041a40.4,40.4,0,0,0,14.337-11.07c5.469-6.313,9.706-13.546,14.909-20.065a17.4,17.4,0,0,1,2.051-2.478,18.465,18.465,0,0,1,2.057-1.553,28.12,28.12,0,0,1,9.4-2.066,17.8,17.8,0,0,1,15.137,6.622c6.145,7.438,8.148,16.792,7.974,26.249C646.062,693.353,646.111,695.75,646.111,698.238Z" transform="translate(-7.733 -3.269)"/><path class="am" d="M597.667,652.471c1.445-.02,2.161.879,2.849,2.022a21.094,21.094,0,0,1,3.1,11.621,14.2,14.2,0,0,1-5.1,6.589c-.621-.18-.779-.68-.858-1.235-.114-.94.549-1.925-.181-2.974-1.613.639-2.549,2.007-3.574,3.171-2.134,2.423-4.407,4.725-6.42,7.256-3.153,3.965-7.722,4.594-12.3,5.117-1.861.212-3.771-.215-5.621.362a5.124,5.124,0,0,1-.863.185c-4.235.139-8.479.507-12.641-.687a2.014,2.014,0,0,1-1.216-1.919,2.3,2.3,0,0,1,.371-1.31c1.515-1.155,3.287-.582,4.952-.71,6.3-.48,12.554-1.12,18.137-4.484,5.512-3.32,9.637-7.79,11.389-14.116a30.576,30.576,0,0,1,3.7-7.455C594.553,652.654,595.863,651.82,597.667,652.471Z" transform="translate(-7.957 -2.501)"/><path class="an" d="M602.4,673.691l4.983-6.372c2.626-1.919,4.942-4.291,8.051-5.5.563-.174.71.073.594.587-5.853,7.581-10.852,15.8-17.073,23.1-3.968,4.653-8.524,8.676-14.356,10.956-.169-1.251.956-1.66,1.561-2.411,4.862-2.962,7.75-7.62,10.513-12.357,1.041-1.783,2.111-3.544,3.228-5.278C600.675,675.448,601.188,674.247,602.4,673.691Z" transform="translate(-11.727 -3.707)"/><path class="ao" d="M593.179,635.294c1.628-2.513,3.886-3.308,7.2-2.45a29.023,29.023,0,0,1,2.771,1.01c4.11,3.585,4.1,8.094-.019,12.326a2.841,2.841,0,0,1-2.471-2.719c.115-.429.377-.8.522-1.216.434-1.241.244-2.056-1.292-1.448-1.094.432-1.948.4-2.365-.787a4.049,4.049,0,0,0-3.365-2.983C593.253,636.879,592.74,636.3,593.179,635.294Z" transform="translate(-12.796)"/><path class="ap" d="M601.154,645.16q1.149,1.313,2.3,2.623c-.656,1.189-.3,2.547-.624,3.791a11.2,11.2,0,0,0-3.872,1.511,1.15,1.15,0,0,1-1.051.647c-2.018-.241-1.63-2.062-2.16-3.283-.109-.509-.365-1.278.069-1.478C597.847,648.034,599.054,645.972,601.154,645.16Z" transform="translate(-13.119 -1.603)"/><path class="aq" d="M620.506,662.267l-.594-.587a2.937,2.937,0,0,1,2.146-.983A3.194,3.194,0,0,1,620.506,662.267Z" transform="translate(-16.204 -3.572)"/><path class="k" d="M509.116,729.835l-.759.919c-.892.735-1.813,1.439-2.67,2.214-2.838,2.565-3.912,2.58-6.876.038-.677-.58-1.368-1.142-2.052-1.713-1.394-1.74-2.814-3.459-4.163-5.233-.355-.466-.793-1.074-.382-1.721a1.52,1.52,0,0,1,1.933-.448,12.365,12.365,0,0,1,3.192,1.355c2.817,1.966,5.559,2.136,8.369.074a.878.878,0,0,1,.769-.021C507.407,726.781,509.7,727.472,509.116,729.835Z" transform="translate(0 -11.561)"/><path class="ar" d="M549.462,727.571q.791,1.623,1.582,3.247c.527,2.325-.976,3.189-2.781,3.227-3.663.074-7.276-.378-10.341-2.73-.414-1.265.274-1.835,1.36-2.152a5.077,5.077,0,0,1,3.625-.28C545.51,729.856,547.48,729,549.462,727.571Z" transform="translate(-5.798 -12.047)"/><path class="as" d="M579.967,709.1c-1.408.014-3.021.4-3.614-1.476-.544-1.729.743-2.7,1.809-3.573a19.956,19.956,0,0,1,6.791-3.7c7.938-2.421,13.369-8.059,18.7-13.973,5.031-5.579,9.263-11.889,15.227-16.625,2.877-2.284,5.522-2.747,8.093-1.129,2.349,1.479,2.9,3.646,2.079,7.388a21.754,21.754,0,0,1-4.627,8.718c-9.141,11.6-21.522,18.167-35.329,22.447-2.3.713-4.635,1.326-6.976,1.9A9.32,9.32,0,0,1,579.967,709.1Z" transform="translate(-10.668 -4.455)"/><path class="at" d="M576.743,697.645c-.114,1.12-1.461,1.211-1.8,2.147a48.179,48.179,0,0,1-12.416,4.344q-2.629.325-5.247.638-3.287,1.031-6.563,2.066c-.217-.016-.433-.027-.649-.043l-5.367.7c-1.206.454-1.807,1.087-1.439,2.581.606,2.5.936,5.069,1.38,7.612.141,1.265.941,2.413.66,3.749a1.2,1.2,0,0,1,.432,1.131c-1.6,2.878-2.835,3.284-5.978,1.91-1.38-.6-2.094-.438-1.055-1.12a77.811,77.811,0,0,1-4.3-8.932c-.6-1.715-1.558-.952-2.478-.33-5.518,3.749-11.333,6.995-17.182,10.188a6.4,6.4,0,0,1-3.56,1.038c-.13-1.959-2.586-2.429-2.775-4.35,9.072-1.844,15.349-8.223,22.165-13.715,2.38-1.915,4.663-3.949,7.076-5.826a38.022,38.022,0,0,1,14.12-7.081c3.83-.968,7.763-1.791,10.4-5.193.341-.438,1.007-.352,1.451-.66l.005-.114c2.9-.574,5.4-.45,7.093,2.64.935,1.715,2.78,2.792,4.306,4.057C575.851,695.757,576.84,696.346,576.743,697.645Z" transform="translate(-2.074 -7.047)"/><path class="au" d="M563.53,688.482c-2.8,4.092-7.1,5.5-11.635,6.514-6.779,1.507-12.231,5.4-17.419,9.764-5.549,4.672-10.941,9.552-17.149,13.375-2.754,1.7-5.551,3.341-9.011,2.825l-.633-.169c-.321-1.818.91-2.787,2.093-3.752,5.555-4.53,11.082-9.094,16.712-13.529,1.552-1.223,2.267-2.25,1.21-4.214a12.234,12.234,0,0,1-1.294-4.356c-.209-1.875-.555-4,1.895-4.942,1.341.589,1.859,1.906,2.652,2.981a16.064,16.064,0,0,1,.872,1.609,9.282,9.282,0,0,1-.045,1.6c-.042,1.881.7,1.933,2.084.992a20.745,20.745,0,0,1,5.076-2.945c.734-.242-1.182-.162-.352-.859,2.43-1.444,5.281-.663,7.83-1.487,1.137-.368,2.649-.17,2.822-1.937a2.706,2.706,0,0,1,.781-1.967A101.781,101.781,0,0,0,563.53,688.482Z" transform="translate(-1.975 -7.031)"/><path class="av" d="M584.756,695.271c-2.71-2.923-6.344-4.874-8.355-8.592-.9-1.667-3.182-.1-4.752-.669,3.633-1.028,7.465-.1,11.142-1.392a14.623,14.623,0,0,0,6.779-4.537c2.76-3.311,5.769-6.415,8.671-9.609.464-.51.778-1.355,1.692-.984s.957,1.253.854,2.071a18.372,18.372,0,0,1-.5,2.092,9.851,9.851,0,0,1-1.593,3.782c-3.07,5.663-6.058,11.381-10.794,15.915A5.481,5.481,0,0,1,584.756,695.271Z" transform="translate(-10.088 -4.674)"/><path class="aw" d="M556.493,678.242a61.606,61.606,0,0,0,12.538-2.686c2.387-1.514,5.268-1.854,7.7-3.255,2.856-1.339,4.231-4.072,5.945-6.448,1.047-1.451,2.057-2.938,3.1-4.4,1.8-2.691,3.271-5.705,6.755-6.685l1.3-.536c-3.267,5.015-3.781,11.325-7.855,16.025-5.369,6.194-12.18,9.113-20.107,10.182a84.051,84.051,0,0,1-10.213.476C554.567,679.6,555.5,678.91,556.493,678.242Z" transform="translate(-7.999 -2.753)"/><path class="ax" d="M555.207,681.371c-.259.9-1.086,1.618-.832,2.675q-.17.565-.341,1.128c-.865.687-1.644.2-2.435-.168a8.689,8.689,0,0,0-3.914-.828c-1.359-.114-2.461-.582-2.664-2.148.028-.81.235-1.5,1.155-1.708,1.929-1.847,3.993-1.719,6.164-.458C553.272,680.406,554.25,680.871,555.207,681.371Z" transform="translate(-6.713 -5.882)"/><path class="ay" d="M551.88,685.421q.979.288,1.956.576c.18.582.136,1.261.722,1.667q-.027,1.054-.054,2.109c-3.2,1.438-6.542.815-9.807.479-1.561-.161-1.661-1.566-.223-2.738C546.622,685.764,549.244,685.531,551.88,685.421Z" transform="translate(-6.515 -6.705)"/><path class="az" d="M602.621,678.051a12.144,12.144,0,0,1,1.593-3.782l.474,1.008A6.381,6.381,0,0,1,602.621,678.051Z" transform="translate(-14.013 -5.292)"/><path class="ba" d="M592.692,648.381c-2.427-.019-3.084-2.677-2.729-4.568.544-2.9,1-5.682,2.817-8.114.2.385.388,1.1.6,1.107a4.313,4.313,0,0,1,4.556,3.926c.093.511.617.614,1.023.184.747-.792,1.458-1.812,2.566-.5s.261,2.292-.671,3.216a4.082,4.082,0,0,1-.424.324c-1.292,1.729-2.505,3.551-4.9,3.932A15.823,15.823,0,0,1,592.692,648.381Z" transform="translate(-12.397 -0.404)"/><path class="bb" d="M523.879,672.168c-1.367-1.888-.767-2.771,1.424-3.194,3.249-.629,6.486-1.362,9.675-2.245a2.344,2.344,0,0,1,2.974.977c1.319,1.921,2.614,3.863,4.036,5.707.935,1.213.606,2.091-.379,2.971-2.249,3-5.553,4.69-8.488,6.831a1.851,1.851,0,0,1-2.667-.4C528.061,679.393,525.25,676.221,523.879,672.168Z" transform="translate(-3.942 -4.315)"/><path class="bc" d="M523.706,672.981c2.106,3.128,4.293,6.206,6.288,9.4,1.106,1.774,2.029,1.833,3.617.547,2.51-2.034,5.207-3.835,7.826-5.735l1.793,2.372q-.4.851-.807,1.7c-1.064,3.378-3.973,5.423-5.919,8.164a23.48,23.48,0,0,1-2,2.173c-.8.866-1.539.759-2.207-.169l-2.207-3.343c-2.532-4.007-5.047-8.023-7.6-12.013C521.426,674.429,521.378,673.262,523.706,672.981Z" transform="translate(-3.769 -5.129)"/><path class="bd" d="M586.1,662.5c-2.081,4.392-4.317,8.665-8.631,11.362A52.072,52.072,0,0,1,562,673.03a7.958,7.958,0,0,1-3.961-1.535c-.837-1.282.086-1.641,1.043-1.982,4.668,0,9.354-.254,14,.075a11.321,11.321,0,0,0,10.232-4.628A9.7,9.7,0,0,1,586.1,662.5Z" transform="translate(-8.321 -3.801)"/><path class="be" d="M557.908,672.408a51.8,51.8,0,0,0,16.707,2.2c.934-.015,2-.426,2.779.514-2.574,1.3-5.158,2.572-8.115,2.739a46,46,0,0,1-10.265-1.561c-1.424-.372-2.269-1.019-1.715-2.631C556.936,672.973,557.354,672.658,557.908,672.408Z" transform="translate(-8.247 -5.056)"/><path class="bf" d="M556.611,671.864,556,673.12c-2.746,1.154-5.007-1.381-7.742-.991-1.3.185-1.844-1.051-.866-2.207,1.237-1.465,2.9-2.288,4.755-1.511a53.374,53.374,0,0,0,5.558,1.812C557.323,670.759,556.491,670.993,556.611,671.864Z" transform="translate(-6.951 -4.512)"/><path class="bg" d="M533.825,692.643c1.044.78,1.533.05,2.146-.692,2.632-3.183,5.316-6.323,7.979-9.478.422,1.384,1.471,1.608,2.736,1.56,1.411-.053,2.881-.23,3.973,1.014a3.7,3.7,0,0,1-2.891,1.106,5.652,5.652,0,0,0-3.26,1.012c-.644.472-2.012.607-1.663,1.739.284.918,1.411.451,2.154.466,2.76.055,5.523.026,8.286.029.276,1.41-.224,1.912-1.722,2.271-3.2.768-6.5.61-9.668,1.437a8.625,8.625,0,0,1-6.957.652C534.31,693.642,533.818,693.391,533.825,692.643Z" transform="translate(-5.294 -6.332)"/><path class="bh" d="M535.013,695.3l6.958-.652,1.278.194c-2.425,1.651-4.719,3.186-6.98,4.767-.962.673-1.312.048-1.549-.679A4.112,4.112,0,0,1,535.013,695.3Z" transform="translate(-5.372 -7.875)"/><path class="bi" d="M534.332,674.111a2.678,2.678,0,0,1-.045,3.251,3.278,3.278,0,0,1-2.712.017c-1.152-.048-1.67-.875-2.171-1.742a1.686,1.686,0,0,1,.044-1.992c.286-.4.651-.694,1.11-.471.793.383.288,1.055.3,1.636.014.83.31,1.764,1.227,1.805a1.5,1.5,0,0,0,1.651-1.894C533.57,674.161,533.815,674,534.332,674.111Z" transform="translate(-4.696 -5.143)"/><path class="bj" d="M538.112,674.3a2.511,2.511,0,0,1-1.464-1.753c-.165-.941.727-1.086,1.451-.955.513.093,1.49-.14,1.3.838C539.265,673.143,539.084,674.025,538.112,674.3Z" transform="translate(-5.65 -4.947)"/><path class="bk" d="M534.873,674.122l-.6.61c-.407-.375-1.314-.727-.688-1.336S534.567,673.628,534.873,674.122Z" transform="translate(-5.237 -5.155)"/><path class="bk" d="M531.934,678l2.712-.017A1.876,1.876,0,0,1,531.934,678Z" transform="translate(-5.055 -5.762)"/><path class="an" d="M651.54,704.027c-.005,1.6-.032,3.225-.12,4.859-.286,5.285-1.25,10.512-4.241,14.239-4.745,5.908-13.336,7.731-20.439,8.911-10.165,1.682-20.542,1.287-30.832,1.163l.032-.065a26.315,26.315,0,0,1,14.553-7.195c11.524-1.6,20.32-7.829,28.359-15.576a36.29,36.29,0,0,1,7.211-5.172A9.151,9.151,0,0,1,651.54,704.027Z" transform="translate(-13.162 -9.058)"/></g><rect class="e" width="19.297" height="19.297" rx="3.704" transform="translate(657.612 539.591)"/><rect class="am" width="10.926" height="10.926" rx="1.994" transform="translate(1112.557 583.908)"/><g class="bl" transform="translate(1249.136 390.417)"><rect class="am" width="20.039" height="20.039" rx="2.827"/></g></g></svg>