<svg xmlns="http://www.w3.org/2000/svg" width="32" height="32" viewBox="0 0 32 32"><g transform="translate(-22 -210)"><rect width="32" height="32" rx="3" transform="translate(22 210)" fill="#f80647"/><path d="M6.826,42.3l-.892-.892a.961.961,0,0,1,0-1.363l7.81-7.814a.961.961,0,0,1,1.363,0l7.81,7.81a.961.961,0,0,1,0,1.363l-.892.892a.966.966,0,0,1-1.379-.016l-4.61-4.839V48.994a.962.962,0,0,1-.965.965H13.783a.962.962,0,0,1-.965-.965V37.443L8.2,42.286A.959.959,0,0,1,6.826,42.3Z" transform="translate(23.35 185.05)" fill="#fff"/></g></svg>